<svg width="25" height="25" viewBox="0 0 25 25" fill="none" xmlns="http://www.w3.org/2000/svg">
<rect width="25" height="25" rx="12.5" fill="#34A68A"/>
<path d="M15.4844 7.16406L17.8333 9.51302C17.9323 9.61198 17.9323 9.77344 17.8333 9.8724L12.1458 15.5599L9.72917 15.8281C9.40625 15.8646 9.13281 15.5911 9.16927 15.2682L9.4375 12.8516L15.125 7.16406C15.224 7.0651 15.3854 7.0651 15.4844 7.16406ZM19.7031 6.56771L18.4323 5.29687C18.0365 4.90104 17.3932 4.90104 16.9948 5.29687L16.0729 6.21875C15.974 6.31771 15.974 6.47917 16.0729 6.57812L18.4219 8.92708C18.5208 9.02604 18.6823 9.02604 18.7812 8.92708L19.7031 8.00521C20.099 7.60677 20.099 6.96354 19.7031 6.56771ZM15 14.013V16.6641H6.66667V8.33073H12.651C12.7344 8.33073 12.8125 8.29687 12.8724 8.23958L13.9141 7.19792C14.112 7 13.9714 6.66406 13.6927 6.66406H6.25C5.5599 6.66406 5 7.22396 5 7.91406V17.0807C5 17.7708 5.5599 18.3307 6.25 18.3307H15.4167C16.1068 18.3307 16.6667 17.7708 16.6667 17.0807V12.9714C16.6667 12.6927 16.3307 12.5547 16.1328 12.75L15.0911 13.7917C15.0339 13.8516 15 13.9297 15 14.013Z" fill="white"/>
</svg>
