<svg width="24" height="24" viewBox="0 0 24 24" fill="none" xmlns="http://www.w3.org/2000/svg">
<path d="M22.2803 14.4697L20.0303 12.2197C19.8896 12.0791 19.6989 12.0002 19.5 12.0002C19.3011 12.0002 19.1104 12.0791 18.9697 12.2197L12 19.1895V22.5H15.3105L22.2803 15.5302C22.4209 15.3896 22.4998 15.1989 22.4998 15C22.4998 14.8011 22.4209 14.6104 22.2803 14.4697ZM14.6895 21H13.5V19.8105L17.25 16.0605L18.4395 17.25L14.6895 21ZM19.5 16.1895L18.3105 15L19.5 13.8105L20.6895 15L19.5 16.1895Z" fill="#085D7A"/>
<path d="M12.75 11.25H8.25C7.65326 11.25 7.08097 11.4871 6.65901 11.909C6.23705 12.331 6 12.9033 6 13.5V14.25H7.5V13.5C7.5 13.3011 7.57902 13.1103 7.71967 12.9697C7.86032 12.829 8.05109 12.75 8.25 12.75H12.75C12.9489 12.75 13.1397 12.829 13.2803 12.9697C13.421 13.1103 13.5 13.3011 13.5 13.5V14.25H15V13.5C15 12.9033 14.7629 12.331 14.341 11.909C13.919 11.4871 13.3467 11.25 12.75 11.25Z" fill="#085D7A"/>
<path d="M10.5 10.5C11.0933 10.5 11.6734 10.3241 12.1667 9.99441C12.6601 9.66477 13.0446 9.19623 13.2716 8.64805C13.4987 8.09987 13.5581 7.49667 13.4424 6.91473C13.3266 6.33279 13.0409 5.79824 12.6213 5.37868C12.2018 4.95912 11.6672 4.6734 11.0853 4.55765C10.5033 4.44189 9.90013 4.5013 9.35195 4.72836C8.80377 4.95543 8.33524 5.33994 8.00559 5.83329C7.67595 6.32664 7.5 6.90666 7.5 7.5C7.5 8.29565 7.81607 9.05871 8.37868 9.62132C8.94129 10.1839 9.70435 10.5 10.5 10.5ZM10.5 6C10.7967 6 11.0867 6.08797 11.3334 6.2528C11.58 6.41762 11.7723 6.65189 11.8858 6.92598C11.9994 7.20007 12.0291 7.50167 11.9712 7.79264C11.9133 8.08361 11.7704 8.35088 11.5607 8.56066C11.3509 8.77044 11.0836 8.9133 10.7926 8.97118C10.5017 9.02906 10.2001 8.99935 9.92598 8.88582C9.65189 8.77229 9.41762 8.58003 9.2528 8.33336C9.08797 8.08668 9 7.79667 9 7.5C9 7.10218 9.15804 6.72065 9.43934 6.43934C9.72064 6.15804 10.1022 6 10.5 6Z" fill="#085D7A"/>
<path d="M9 22.5H4.5C4.1023 22.4996 3.721 22.3414 3.43978 22.0602C3.15856 21.779 3.0004 21.3977 3 21V3C3.0004 2.6023 3.15856 2.221 3.43978 1.93978C3.721 1.65856 4.1023 1.5004 4.5 1.5H16.5C16.8977 1.5004 17.279 1.65856 17.5602 1.93978C17.8414 2.221 17.9996 2.6023 18 3V10.5H16.5V3H4.5V21H9V22.5Z" fill="#085D7A"/>
</svg>
