<svg width="24" height="24" viewBox="0 0 24 24" fill="none" xmlns="http://www.w3.org/2000/svg">
<path d="M12 21.4199L15.684 10.0869H8.32001L12 21.4209V21.4199Z" fill="#085D7A"/>
<path opacity="0.25" d="M3.15998 10.0869L2.03698 13.5309C1.98741 13.684 1.98751 13.8488 2.03726 14.0019C2.08701 14.1549 2.18387 14.2882 2.31398 14.3829L11.999 21.4209L3.15898 10.0869H3.15998Z" fill="#085D7A"/>
<path d="M3.15997 10.0869H8.31997L6.09997 3.26191C6.07486 3.18518 6.02613 3.11834 5.96076 3.07095C5.89539 3.02356 5.81671 2.99805 5.73597 2.99805C5.65523 2.99805 5.57656 3.02356 5.51118 3.07095C5.44581 3.11834 5.39709 3.18518 5.37197 3.26191L3.15997 10.0869Z" fill="#085D7A"/>
<path opacity="0.25" d="M20.845 10.0869L21.963 13.5309C22.0127 13.6839 22.0127 13.8487 21.9632 14.0017C21.9136 14.1547 21.817 14.2881 21.687 14.3829L11.999 21.4209L20.845 10.0869Z" fill="#085D7A"/>
<path d="M20.845 10.0871H15.684L17.9 3.2621C17.9254 3.18573 17.9741 3.11929 18.0394 3.07219C18.1046 3.0251 18.1831 2.99976 18.2635 2.99976C18.344 2.99976 18.4224 3.0251 18.4877 3.07219C18.5529 3.11929 18.6017 3.18573 18.627 3.2621L20.844 10.0871H20.845Z" fill="#085D7A"/>
<path opacity="0.5" d="M11.999 21.4209L15.684 10.0869H20.845L11.999 21.4209Z" fill="#085D7A"/>
<path opacity="0.5" d="M11.999 21.4209L3.159 10.0869H8.32L11.999 21.4209Z" fill="#085D7A"/>
</svg>
