<svg width="14" height="15" viewBox="0 0 14 15" fill="none" xmlns="http://www.w3.org/2000/svg">
<g clip-path="url(#clip0_978_18096)">
<path fill-rule="evenodd" clip-rule="evenodd" d="M8.29996 0.912087L1.07396 8.22109L0.073962 12.8211C0.0243452 13.0481 0.0325905 13.2839 0.0979399 13.5069C0.163289 13.7298 0.283645 13.9328 0.447942 14.0971C0.612239 14.2614 0.815204 14.3818 1.03818 14.4471C1.26115 14.5125 1.49697 14.5207 1.72396 14.4711L6.32396 13.4711L13.56 6.15009C13.8177 5.88954 13.9619 5.53756 13.961 5.17106C13.96 4.80455 13.8141 4.45331 13.555 4.19409L10.268 0.906087C10.1386 0.776831 9.98494 0.674415 9.81586 0.604726C9.64678 0.535037 9.46559 0.499449 9.28271 0.500006C9.09984 0.500564 8.91887 0.537256 8.75022 0.607975C8.58156 0.678694 8.42855 0.782044 8.29996 0.912087ZM2.80996 12.9651L1.57596 11.7321L2.20596 8.83909L5.70596 12.3391L2.80996 12.9651Z" fill="#9A74FF"/>
</g>
<defs>
<clipPath id="clip0_978_18096">
<rect width="14" height="14" fill="white" transform="translate(0 0.5)"/>
</clipPath>
</defs>
</svg>
