<svg width="12" height="13" viewBox="0 0 12 13" fill="none" xmlns="http://www.w3.org/2000/svg">
<g clip-path="url(#clip0_978_17728)">
<path d="M10.7143 5.2145H7.37142C7.32695 5.21149 7.28507 5.19247 7.25355 5.16095C7.22203 5.12943 7.203 5.08755 7.19999 5.04307V1.78593C7.21256 1.62112 7.19081 1.45548 7.13609 1.29951C7.08137 1.14353 6.99489 1.00061 6.8821 0.879769C6.76932 0.75893 6.63269 0.662806 6.48086 0.597475C6.32902 0.532143 6.16528 0.499026 5.99999 0.500216C5.83029 0.497076 5.66169 0.528186 5.50428 0.591688C5.34687 0.655189 5.20388 0.749778 5.08386 0.869799C4.96384 0.98982 4.86925 1.13281 4.80575 1.29022C4.74225 1.44763 4.71114 1.61622 4.71428 1.78593V5.12879C4.71127 5.17326 4.69224 5.21514 4.66072 5.24666C4.6292 5.27818 4.58732 5.29721 4.54285 5.30022H1.28571C1.1194 5.28028 0.950754 5.29691 0.791544 5.34893C0.632335 5.40096 0.486407 5.48712 0.36396 5.60141C0.241513 5.71569 0.145501 5.85534 0.0826345 6.01058C0.019768 6.16583 -0.00843633 6.33294 -7.21402e-06 6.50022C0.00825521 6.83861 0.146366 7.16086 0.385717 7.40021C0.625067 7.63956 0.947315 7.77767 1.28571 7.78593H4.62856C4.67304 7.78894 4.71492 7.80797 4.74644 7.83949C4.77796 7.87101 4.79698 7.91288 4.79999 7.95736V11.3002C4.79587 11.4589 4.82409 11.6168 4.88293 11.7643C4.94178 11.9117 5.03002 12.0457 5.14228 12.1579C5.25455 12.2702 5.38848 12.3584 5.53594 12.4173C5.68339 12.4761 5.84128 12.5043 5.99999 12.5002C6.33838 12.492 6.66063 12.3538 6.89998 12.1145C7.13933 11.8751 7.27744 11.5529 7.28571 11.2145V7.87165C7.28871 7.82717 7.30774 7.78529 7.33926 7.75377C7.37078 7.72225 7.41266 7.70322 7.45713 7.70022H10.8C11.1162 7.69365 11.4176 7.56511 11.6413 7.34148C11.8649 7.11784 11.9934 6.81642 12 6.50022C12.014 6.32783 11.9903 6.15446 11.9306 5.99212C11.871 5.82978 11.7767 5.68236 11.6544 5.56006C11.5321 5.43776 11.3847 5.34351 11.2224 5.28385C11.06 5.22418 10.8867 5.20052 10.7143 5.2145Z" fill="#9A74FF"/>
</g>
<defs>
<clipPath id="clip0_978_17728">
<rect width="12" height="12" fill="white" transform="translate(0 0.5)"/>
</clipPath>
</defs>
</svg>
