<svg width="14" height="15" viewBox="0 0 14 15" fill="none" xmlns="http://www.w3.org/2000/svg">
<path d="M13.06 1.332H9.48496V1.16C9.48496 0.6 9.02296 0.5 8.45896 0.5H5.52196C4.95796 0.5 4.49996 0.6 4.49996 1.16V1.332H0.938957C0.858945 1.33187 0.779694 1.34753 0.705747 1.37809C0.6318 1.40865 0.564612 1.4535 0.508035 1.51008C0.451458 1.56666 0.406604 1.63384 0.376046 1.70779C0.345488 1.78174 0.329825 1.86099 0.329957 1.941V3.117C0.329957 3.27852 0.394119 3.43342 0.508329 3.54763C0.622538 3.66184 0.77744 3.726 0.938957 3.726H13.06C13.2215 3.726 13.3764 3.66184 13.4906 3.54763C13.6048 3.43342 13.669 3.27852 13.669 3.117V1.941C13.669 1.77948 13.6048 1.62458 13.4906 1.51037C13.3764 1.39616 13.2215 1.332 13.06 1.332Z" fill="#F87170"/>
<path d="M11.7819 5.34424H2.21694C2.13095 5.345 2.0461 5.36392 1.96794 5.39978C1.88979 5.43563 1.8201 5.48761 1.76344 5.55229C1.70678 5.61697 1.66444 5.6929 1.63919 5.7751C1.61395 5.8573 1.60636 5.9439 1.61694 6.02924L2.59794 13.4512C2.63453 13.7398 2.77465 14.0052 2.99225 14.1981C3.20985 14.3911 3.49012 14.4984 3.78094 14.5002H10.2179C10.5096 14.4996 10.7911 14.3928 11.0097 14.1998C11.2284 14.0067 11.3692 13.7406 11.4059 13.4512L12.3859 6.02924C12.3967 5.94354 12.3891 5.85653 12.3637 5.77399C12.3383 5.69144 12.2956 5.61525 12.2385 5.55047C12.1814 5.48568 12.1111 5.43379 12.0324 5.39823C11.9537 5.36268 11.8683 5.34427 11.7819 5.34424Z" fill="#F87170"/>
</svg>
