<svg width="18" height="18" viewBox="0 0 18 18" fill="none" xmlns="http://www.w3.org/2000/svg">
<path d="M9 11.25C10.5533 11.25 11.8125 9.9908 11.8125 8.4375C11.8125 6.8842 10.5533 5.625 9 5.625C7.4467 5.625 6.1875 6.8842 6.1875 8.4375C6.1875 9.9908 7.4467 11.25 9 11.25Z" stroke="white" stroke-width="2" stroke-miterlimit="10"/>
<path d="M4.48587 14.0185C4.90958 13.1854 5.55555 12.4859 6.35227 11.9973C7.14898 11.5086 8.06537 11.25 8.99999 11.25C9.93461 11.25 10.851 11.5086 11.6477 11.9972C12.4444 12.4859 13.0904 13.1854 13.5141 14.0185" stroke="white" stroke-width="2" stroke-linecap="round" stroke-linejoin="round"/>
<path d="M12.375 3.9375H15.75" stroke="white" stroke-width="2" stroke-linecap="round" stroke-linejoin="round"/>
<path d="M14.0625 2.25V5.625" stroke="white" stroke-width="2" stroke-linecap="round" stroke-linejoin="round"/>
<path d="M15.6665 7.93532C15.8899 9.34197 15.6622 10.7832 15.0161 12.0525C14.3699 13.3218 13.3384 14.3538 12.0695 15.0007C10.8006 15.6476 9.35947 15.8761 7.9527 15.6535C6.54593 15.4308 5.24579 14.7684 4.23867 13.7613C3.23156 12.7542 2.5692 11.4541 2.34655 10.0473C2.1239 8.64052 2.35241 7.19938 2.9993 5.93049C3.6462 4.66159 4.67826 3.63011 5.94752 2.98393C7.21678 2.33775 8.65805 2.11006 10.0647 2.3335" stroke="white" stroke-width="2" stroke-linecap="round" stroke-linejoin="round"/>
</svg>
