<svg width="16" height="17" viewBox="0 0 16 17" fill="none" xmlns="http://www.w3.org/2000/svg">
<path d="M5.5 15H10.5" stroke="#374151" stroke-linecap="round" stroke-linejoin="round"/>
<path d="M4.91898 10.9382C4.32445 10.4739 3.8429 9.88082 3.51054 9.20359C3.17818 8.52637 3.00365 7.78262 3.00008 7.02825C2.9851 4.3181 5.17 2.06522 7.87944 2.00145C8.92935 1.97617 9.96058 2.28212 10.8268 2.87589C11.6931 3.46967 12.3504 4.32113 12.7055 5.30949C13.0606 6.29786 13.0955 7.37294 12.8052 8.38225C12.5149 9.39156 11.9142 10.2838 11.0883 10.9325C10.9064 11.0735 10.7589 11.2539 10.657 11.4603C10.555 11.6666 10.5014 11.8934 10.5 12.1235L10.5 12.5C10.5 12.6326 10.4473 12.7598 10.3536 12.8536C10.2598 12.9474 10.1326 13 10 13H5.99999C5.86738 13 5.74021 12.9474 5.64644 12.8536C5.55267 12.7598 5.49999 12.6326 5.49999 12.5L5.49998 12.1231C5.49942 11.8945 5.44681 11.6689 5.34614 11.4637C5.24548 11.2584 5.0994 11.0787 4.91898 10.9382V10.9382Z" stroke="#374151" stroke-linecap="round" stroke-linejoin="round"/>
<path d="M8.50757 4.04883C9.11914 4.15278 9.68334 4.44406 10.1223 4.88244C10.5612 5.32082 10.8532 5.88466 10.9579 6.4961" stroke="#374151" stroke-linecap="round" stroke-linejoin="round"/>
</svg>
