<svg width="13" height="12" viewBox="0 0 13 12" fill="none" xmlns="http://www.w3.org/2000/svg">
<path fill-rule="evenodd" clip-rule="evenodd" d="M8.58289 2.12782L6.41432 4.29468L4.24575 2.12611C4.1315 2.00712 3.99464 1.91214 3.84321 1.84673C3.69178 1.78131 3.52881 1.74679 3.36386 1.74518C3.19891 1.74356 3.0353 1.77489 2.88261 1.83733C2.72992 1.89977 2.59124 1.99205 2.47468 2.10878C2.35813 2.22551 2.26604 2.36433 2.20383 2.51711C2.14162 2.66988 2.11053 2.83354 2.11238 2.99849C2.11424 3.16344 2.149 3.32635 2.21464 3.47769C2.28027 3.62903 2.37545 3.76574 2.49461 3.87982L4.66232 6.04839L2.49632 8.21439C2.26987 8.44836 2.14443 8.76195 2.14705 9.08755C2.14967 9.41315 2.28013 9.72468 2.51032 9.95497C2.7405 10.1853 3.05197 10.3159 3.37757 10.3187C3.70316 10.3214 4.01681 10.1962 4.25089 9.96982L6.41432 7.79954L8.58118 9.96725C8.69552 10.086 8.83239 10.1808 8.98378 10.246C9.13517 10.3113 9.29805 10.3457 9.4629 10.3472C9.62775 10.3488 9.79125 10.3175 9.94385 10.2551C10.0965 10.1927 10.2351 10.1006 10.3517 9.98402C10.4682 9.86745 10.5604 9.72881 10.6228 9.57621C10.6851 9.42361 10.7164 9.2601 10.7149 9.09526C10.7133 8.93041 10.6789 8.76753 10.6137 8.61614C10.5484 8.46474 10.4536 8.32788 10.3349 8.21353L8.17146 6.04925L10.3375 3.88325C10.5639 3.64928 10.6894 3.33569 10.6867 3.01009C10.6841 2.68449 10.5537 2.37296 10.3235 2.14267C10.0933 1.91237 9.78182 1.78175 9.45622 1.77898C9.13062 1.7762 8.81697 1.90148 8.58289 2.12782Z" fill="#FAFAFB"/>
</svg>
