<svg width="15" height="15" viewBox="0 0 15 15" fill="none" xmlns="http://www.w3.org/2000/svg">
<g clip-path="url(#clip0_1016_17608)">
<path fill-rule="evenodd" clip-rule="evenodd" d="M4.00004 3.9693C4.11595 3.9693 4.23073 3.94646 4.3378 3.90207C4.44487 3.85768 4.54215 3.79263 4.62406 3.71062C4.70598 3.62861 4.77093 3.53126 4.81519 3.42414C4.85946 3.31701 4.88217 3.20221 4.88204 3.0863V1.4943C4.88204 1.37848 4.85923 1.26379 4.8149 1.15678C4.77058 1.04977 4.70561 0.952538 4.62371 0.870636C4.54181 0.788735 4.44458 0.723768 4.33757 0.679443C4.23056 0.635118 4.11587 0.612305 4.00004 0.612305C3.88422 0.612305 3.76952 0.635118 3.66252 0.679443C3.55551 0.723768 3.45828 0.788735 3.37637 0.870636C3.29447 0.952538 3.22951 1.04977 3.18518 1.15678C3.14086 1.26379 3.11804 1.37848 3.11804 1.4943V3.0863C3.11791 3.20221 3.14063 3.31701 3.18489 3.42414C3.22916 3.53126 3.29411 3.62861 3.37602 3.71062C3.45793 3.79263 3.55521 3.85768 3.66228 3.90207C3.76936 3.94646 3.88413 3.9693 4.00004 3.9693Z" fill="#9CA3AF"/>
<path fill-rule="evenodd" clip-rule="evenodd" d="M11 3.9693C11.116 3.9693 11.2307 3.94646 11.3378 3.90207C11.4449 3.85768 11.5421 3.79263 11.6241 3.71062C11.706 3.62861 11.7709 3.53126 11.8152 3.42414C11.8595 3.31701 11.8822 3.20221 11.882 3.0863V1.4943C11.882 1.26038 11.7891 1.03604 11.6237 0.870637C11.4583 0.705229 11.234 0.612305 11 0.612305C10.7661 0.612305 10.5418 0.705229 10.3764 0.870637C10.211 1.03604 10.118 1.26038 10.118 1.4943V3.0863C10.1179 3.20221 10.1406 3.31701 10.1849 3.42414C10.2292 3.53126 10.2941 3.62861 10.376 3.71062C10.4579 3.79263 10.5552 3.85768 10.6623 3.90207C10.7694 3.94646 10.8841 3.9693 11 3.9693Z" fill="#9CA3AF"/>
<path fill-rule="evenodd" clip-rule="evenodd" d="M13.168 1.79216V3.24716C13.1799 3.79954 12.9884 4.33704 12.63 4.75755C12.2716 5.17806 11.7713 5.45229 11.224 5.52816C10.9221 5.55938 10.6169 5.52685 10.3283 5.43266C10.0398 5.33848 9.77418 5.18474 9.54879 4.98141C9.32339 4.77807 9.14322 4.52967 9.01991 4.25229C8.89661 3.9749 8.83293 3.67471 8.833 3.37116V2.14416C8.83274 2.04885 8.79469 1.95754 8.72721 1.89024C8.65972 1.82295 8.56831 1.78516 8.473 1.78516H6.527C6.43179 1.78516 6.34047 1.82298 6.27315 1.8903C6.20582 1.95763 6.168 2.04894 6.168 2.14416V3.24416C6.1806 3.79705 5.98948 4.33528 5.63103 4.75643C5.27258 5.17757 4.7718 5.45224 4.224 5.52816C3.92205 5.55938 3.61691 5.52685 3.32834 5.43266C3.03976 5.33848 2.77418 5.18474 2.54879 4.98141C2.3234 4.77807 2.14322 4.52967 2.01991 4.25229C1.89661 3.9749 1.83293 3.67471 1.833 3.37116V1.79216C1.47464 1.80932 1.13654 1.96341 0.888496 2.22263C0.640449 2.48184 0.501383 2.82639 0.5 3.18516L0.5 12.9852C0.5 13.3565 0.6475 13.7126 0.910051 13.9751C1.1726 14.2377 1.5287 14.3852 1.9 14.3852H13.1C13.4713 14.3852 13.8274 14.2377 14.0899 13.9751C14.3525 13.7126 14.5 13.3565 14.5 12.9852V3.18516C14.4986 2.82655 14.3597 2.48214 14.1119 2.22296C13.864 1.96377 13.5262 1.80957 13.168 1.79216ZM12 11.2752C11.9992 11.5009 11.9092 11.7171 11.7496 11.8767C11.59 12.0363 11.3737 12.1264 11.148 12.1272H3.648C3.42228 12.1264 3.20603 12.0363 3.04642 11.8767C2.88681 11.7171 2.79679 11.5009 2.796 11.2752V7.95516C2.796 7.7284 2.88608 7.51092 3.04642 7.35058C3.20677 7.19024 3.42424 7.10016 3.651 7.10016H11.151C11.3767 7.10095 11.593 7.19097 11.7526 7.35057C11.9122 7.51018 12.0022 7.72644 12.003 7.95216L12 11.2752Z" fill="#9CA3AF"/>
</g>
<defs>
<clipPath id="clip0_1016_17608">
<rect width="14" height="14" fill="white" transform="translate(0.5 0.5)"/>
</clipPath>
</defs>
</svg>
