<svg width="20" height="19" viewBox="0 0 20 19" fill="none" xmlns="http://www.w3.org/2000/svg">
<path d="M2.90402 13.7107C1.87901 11.9828 1.52005 9.94012 1.89453 7.96627C2.26901 5.99241 3.35118 4.22316 4.93782 2.99073C6.52447 1.7583 8.50645 1.14747 10.5116 1.27294C12.5167 1.39842 14.4071 2.25157 15.8277 3.67219C17.2483 5.09281 18.1015 6.98317 18.227 8.98831C18.3525 10.9935 17.7417 12.9754 16.5092 14.5621C15.2768 16.1487 13.5076 17.2309 11.5337 17.6054C9.55986 17.9799 7.51719 17.6209 5.78926 16.5959L5.78928 16.5959L2.93989 17.41C2.822 17.4436 2.69725 17.4452 2.57856 17.4144C2.45988 17.3837 2.35158 17.3217 2.26488 17.2351C2.17818 17.1484 2.11625 17.0401 2.0855 16.9214C2.05474 16.8027 2.05629 16.6779 2.08997 16.56L2.90408 13.7106L2.90402 13.7107Z" stroke="#374151" stroke-width="2" stroke-linecap="round" stroke-linejoin="round"/>
</svg>
