<svg width="14" height="15" viewBox="0 0 14 15" fill="none" xmlns="http://www.w3.org/2000/svg">
<g clip-path="url(#clip0_1016_17536)">
<path fill-rule="evenodd" clip-rule="evenodd" d="M1.46906 3.50014C1.85359 3.49688 2.225 3.63986 2.50806 3.90014L7.00806 8.14714L11.5001 3.90514C11.7828 3.64463 12.1531 3.5 12.5376 3.5C12.922 3.5 13.2924 3.64463 13.5751 3.90514C13.7107 4.0299 13.8191 4.18146 13.8931 4.35024C13.9672 4.51901 14.0055 4.70132 14.0055 4.88564C14.0055 5.06996 13.9672 5.25228 13.8931 5.42105C13.8191 5.58982 13.7107 5.74138 13.5751 5.86614L8.04006 11.0931C7.75834 11.3548 7.38807 11.5003 7.00356 11.5003C6.61906 11.5003 6.24879 11.3548 5.96706 11.0931L0.434065 5.86614C0.298114 5.74154 0.189561 5.59004 0.115298 5.42124C0.0410348 5.25245 0.00268555 5.07005 0.00268555 4.88564C0.00268555 4.70123 0.0410348 4.51884 0.115298 4.35004C0.189561 4.18125 0.298114 4.02974 0.434065 3.90514C0.715028 3.64347 1.08512 3.49865 1.46906 3.50014Z" fill="#6B7280"/>
</g>
<defs>
<clipPath id="clip0_1016_17536">
<rect width="14" height="14" fill="white" transform="translate(0 0.5)"/>
</clipPath>
</defs>
</svg>
