<svg width="20" height="20" viewBox="0 0 20 20" fill="none" xmlns="http://www.w3.org/2000/svg">
<path d="M0 2.13146V17.87C0.00184001 18.33 0.1844 18.7708 0.508304 19.0974C0.832208 19.4239 1.2715 19.6101 1.73143 19.6157H2.42857C2.89107 19.615 3.33436 19.4307 3.66113 19.1034C3.9879 18.7761 4.17143 18.3325 4.17143 17.87V2.13146C4.17143 1.66896 3.9879 1.22536 3.66113 0.898059C3.33436 0.570756 2.89107 0.386499 2.42857 0.385742H1.73C1.27032 0.391733 0.831392 0.578073 0.507795 0.90461C0.184198 1.23115 0.00183431 1.67174 0 2.13146H0Z" fill="#6B7280"/>
<path d="M7.91162 11.3099V17.8699C7.91346 18.3298 8.09602 18.7706 8.41993 19.0972C8.74383 19.4238 9.18312 19.61 9.64305 19.6156H10.3459C10.8084 19.6148 11.2517 19.4306 11.5785 19.1033C11.9052 18.776 12.0888 18.3324 12.0888 17.8699V11.3099C12.0869 10.8486 11.9025 10.4068 11.5759 10.0811C11.2494 9.75532 10.8072 9.57204 10.3459 9.57129H9.64162C9.18317 9.57725 8.7453 9.76261 8.4219 10.0876C8.09851 10.4126 7.91532 10.8514 7.91162 11.3099Z" fill="#6B7280"/>
<path d="M15.8228 6.32534V17.8696C15.8246 18.3296 16.0072 18.7704 16.3311 19.097C16.655 19.4235 17.0943 19.6097 17.5542 19.6153H18.257C18.7195 19.6146 19.1628 19.4303 19.4896 19.103C19.8164 18.7757 19.9999 18.3321 19.9999 17.8696V6.32534C19.9995 5.86309 19.8158 5.41986 19.4891 5.09287C19.1624 4.76587 18.7193 4.58181 18.257 4.58105H17.5528C17.0932 4.58667 16.6543 4.7727 16.3306 5.09901C16.007 5.42532 15.8246 5.86576 15.8228 6.32534Z" fill="#6B7280"/>
</svg>
