<svg width="21" height="20" viewBox="0 0 21 20" fill="none" xmlns="http://www.w3.org/2000/svg">
<path fill-rule="evenodd" clip-rule="evenodd" d="M5.50024 4.95587C5.66582 4.95587 5.82978 4.92323 5.98275 4.85982C6.13571 4.79641 6.27467 4.70347 6.3917 4.58632C6.50872 4.46917 6.6015 4.3301 6.66473 4.17706C6.72797 4.02403 6.76042 3.86003 6.76024 3.69444V1.42016C6.76024 1.25469 6.72764 1.09085 6.66432 0.937975C6.601 0.785105 6.50819 0.646204 6.39119 0.529202C6.27419 0.4122 6.13529 0.319389 5.98242 0.256068C5.82955 0.192747 5.6657 0.160156 5.50024 0.160156C5.33477 0.160156 5.17092 0.192747 5.01805 0.256068C4.86518 0.319389 4.72628 0.4122 4.60928 0.529202C4.49228 0.646204 4.39947 0.785105 4.33615 0.937975C4.27283 1.09085 4.24024 1.25469 4.24024 1.42016V3.69444C4.24005 3.86003 4.2725 4.02403 4.33574 4.17706C4.39897 4.3301 4.49175 4.46917 4.60878 4.58632C4.7258 4.70347 4.86476 4.79641 5.01772 4.85982C5.17069 4.92323 5.33465 4.95587 5.50024 4.95587Z" fill="#7C4BFF"/>
<path fill-rule="evenodd" clip-rule="evenodd" d="M15.5002 4.95587C15.6658 4.95587 15.8298 4.92323 15.9827 4.85982C16.1357 4.79641 16.2747 4.70347 16.3917 4.58632C16.5087 4.46917 16.6015 4.3301 16.6647 4.17706C16.728 4.02403 16.7604 3.86003 16.7602 3.69444V1.42016C16.7602 1.08598 16.6275 0.765498 16.3912 0.529202C16.1549 0.292906 15.8344 0.160156 15.5002 0.160156C15.1661 0.160156 14.8456 0.292906 14.6093 0.529202C14.373 0.765498 14.2402 1.08598 14.2402 1.42016V3.69444C14.24 3.86003 14.2725 4.02403 14.3357 4.17706C14.399 4.3301 14.4918 4.46917 14.6088 4.58632C14.7258 4.70347 14.8648 4.79641 15.0177 4.85982C15.1707 4.92323 15.3346 4.95587 15.5002 4.95587Z" fill="#7C4BFF"/>
<path fill-rule="evenodd" clip-rule="evenodd" d="M18.5971 1.84594V3.92451C18.6141 4.71363 18.3406 5.48148 17.8286 6.08222C17.3166 6.68295 16.6018 7.07471 15.82 7.18308C15.3886 7.22769 14.9527 7.18121 14.5405 7.04666C14.1282 6.91211 13.7488 6.69249 13.4268 6.40201C13.1049 6.11154 12.8475 5.75668 12.6713 5.36041C12.4952 4.96415 12.4042 4.53531 12.4043 4.10165V2.34879C12.4039 2.21265 12.3496 2.0822 12.2532 1.98606C12.1567 1.88992 12.0262 1.83594 11.89 1.83594H9.11C8.97398 1.83594 8.84353 1.88997 8.74736 1.98615C8.65118 2.08233 8.59714 2.21278 8.59714 2.34879V3.92022C8.61514 4.71007 8.34212 5.47898 7.83005 6.08061C7.31797 6.68225 6.60258 7.07463 5.82 7.18308C5.38865 7.22769 4.95274 7.18121 4.54048 7.04666C4.12823 6.91211 3.74883 6.69249 3.42684 6.40201C3.10485 6.11154 2.84745 5.75668 2.6713 5.36041C2.49515 4.96415 2.40419 4.53531 2.40429 4.10165V1.84594C1.89234 1.87046 1.40935 2.09059 1.05499 2.4609C0.700642 2.8312 0.501976 3.32341 0.5 3.83594L0.5 17.8359C0.5 18.3664 0.710714 18.8751 1.08579 19.2502C1.46086 19.6252 1.96957 19.8359 2.5 19.8359H18.5C19.0304 19.8359 19.5391 19.6252 19.9142 19.2502C20.2893 18.8751 20.5 18.3664 20.5 17.8359V3.83594C20.498 3.32364 20.2996 2.83163 19.9455 2.46137C19.5915 2.0911 19.1088 1.87082 18.5971 1.84594ZM16.9286 15.3931C16.9274 15.7155 16.7988 16.0245 16.5708 16.2525C16.3428 16.4805 16.0339 16.6091 15.7114 16.6102H4.99714C4.67468 16.6091 4.36575 16.4805 4.13774 16.2525C3.90973 16.0245 3.78113 15.7155 3.78 15.3931V10.6502C3.78 10.3263 3.90869 10.0156 4.13775 9.78654C4.36681 9.55748 4.67749 9.4288 5.00143 9.4288H15.7157C16.0382 9.42992 16.3471 9.55852 16.5751 9.78654C16.8031 10.0146 16.9317 10.3235 16.9329 10.6459L16.9286 15.3931Z" fill="#7C4BFF"/>
</svg>
