<svg width="21" height="20" viewBox="0 -1 25 24" fill="none" xmlns="http://www.w3.org/2000/svg">
<g clip-path="url(#clip0_1425_9797)">
<path d="M14.9 17.6241V21.8499C14.9 22.1681 15.0264 22.4733 15.2515 22.6984C15.4765 22.9234 15.7817 23.0499 16.1 23.0499H23.3C23.6183 23.0499 23.9235 22.9234 24.1485 22.6984C24.3736 22.4733 24.5 22.1681 24.5 21.8499V11.2419C24.5 10.9897 24.4504 10.74 24.3539 10.5071C24.2574 10.2741 24.116 10.0624 23.9377 9.88414L13.856 1.51843C13.678 1.34023 13.4666 1.19885 13.2339 1.1024C13.0013 1.00595 12.7519 0.956299 12.5 0.956299C12.2481 0.956299 11.9987 1.00595 11.7661 1.1024C11.5334 1.19885 11.322 1.34023 11.144 1.51843L1.06229 9.88414C0.884002 10.0624 0.742583 10.2741 0.646106 10.5071C0.549629 10.74 0.499982 10.9897 0.5 11.2419L0.5 21.8499C0.5 22.1681 0.626428 22.4733 0.851472 22.6984C1.07652 22.9234 1.38174 23.0499 1.7 23.0499H8.9C9.21826 23.0499 9.52348 22.9234 9.74853 22.6984C9.97357 22.4733 10.1 22.1681 10.1 21.8499V17.6241C10.1 16.9876 10.3529 16.3772 10.8029 15.9271C11.253 15.477 11.8635 15.2241 12.5 15.2241V15.2241C13.1365 15.2241 13.747 15.477 14.1971 15.9271C14.6471 16.3772 14.9 16.9876 14.9 17.6241Z" fill="#7C4BFF"/>
</g>
<defs>
<clipPath id="clip0_1425_9797">
<rect width="24" height="24" fill="white" transform="translate(0.5)"/>
</clipPath>
</defs>
</svg>
