<svg width="20" height="18" viewBox="0 0 20 18" fill="none" xmlns="http://www.w3.org/2000/svg">
<path d="M14.3699 0.105676C13.5057 0.125316 12.6586 0.350089 11.8985 0.761461C11.1383 1.17283 10.4868 1.75902 9.99768 2.47168C9.50947 1.75936 8.85897 1.17325 8.09981 0.761643C7.34065 0.350036 6.49454 0.124715 5.63121 0.104248C4.09711 0.188497 2.65498 0.862636 1.60647 1.98567C0.557949 3.1087 -0.0157512 4.59364 0.00535572 6.12991V6.22987C-0.00178524 6.31062 -0.00178524 6.39185 0.00535572 6.47261C0.276653 14.5687 10.0005 17.8957 10.0005 17.8957C10.0005 17.8957 19.7201 14.5687 19.9957 6.47261C20.0014 6.39179 20.0014 6.31068 19.9957 6.22987V6.12991C20.0161 4.59398 19.4421 3.1096 18.3937 1.98696C17.3453 0.864308 15.9036 0.190264 14.3699 0.105676Z" fill="#9CA3AF"/>
</svg>
