<svg width="25" height="26" viewBox="0 0 25 26" fill="none" xmlns="http://www.w3.org/2000/svg">
<path d="M5.48856 10.6562C5.48727 9.72964 5.66938 8.81199 6.02439 7.95614C6.3794 7.1003 6.90029 6.32318 7.55704 5.66958C8.21378 5.01599 8.9934 4.49884 9.85094 4.14796C10.7085 3.79707 11.627 3.61938 12.5535 3.62514C16.4197 3.65388 19.5122 6.86745 19.5122 10.7445V11.4374C19.5122 14.9351 20.2439 16.9647 20.8885 18.074C20.9579 18.1925 20.9948 18.3273 20.9956 18.4646C20.9963 18.602 20.9608 18.7371 20.8926 18.8564C20.8245 18.9756 20.7261 19.0748 20.6074 19.1439C20.4886 19.213 20.3538 19.2496 20.2164 19.2499H4.78354C4.64616 19.2496 4.5113 19.213 4.39257 19.1439C4.27384 19.0748 4.17543 18.9756 4.10728 18.8563C4.03913 18.737 4.00365 18.6018 4.00441 18.4645C4.00517 18.3271 4.04214 18.1923 4.11161 18.0738C4.75646 16.9645 5.48856 14.9349 5.48856 11.4374L5.48856 10.6562Z" stroke="#111827" stroke-width="2" stroke-linecap="round" stroke-linejoin="round"/>
<path d="M9.375 19.25V20.0312C9.375 20.8601 9.70424 21.6549 10.2903 22.241C10.8763 22.827 11.6712 23.1562 12.5 23.1562C13.3288 23.1562 14.1237 22.827 14.7097 22.241C15.2958 21.6549 15.625 20.8601 15.625 20.0312V19.25" stroke="#111827" stroke-width="2" stroke-linecap="round" stroke-linejoin="round"/>
</svg>
