<svg width="22" height="22" viewBox="0 0 22 22" fill="none" xmlns="http://www.w3.org/2000/svg">
<path fill-rule="evenodd" clip-rule="evenodd" d="M13.0829 7.19447L10.9143 9.42904L8.74575 7.1927C8.6315 7.07 8.49464 6.97204 8.34321 6.90459C8.19178 6.83713 8.02881 6.80153 7.86386 6.79987C7.69891 6.7982 7.5353 6.83051 7.38261 6.8949C7.22992 6.95929 7.09124 7.05446 6.97468 7.17483C6.85813 7.29521 6.76604 7.43837 6.70383 7.59592C6.64162 7.75347 6.61053 7.92224 6.61238 8.09234C6.61424 8.26245 6.649 8.43045 6.71464 8.58652C6.78027 8.74259 6.87545 8.88358 6.99461 9.00122L9.16232 11.2376L6.99632 13.4712C6.76987 13.7125 6.64443 14.0359 6.64705 14.3717C6.64967 14.7075 6.78013 15.0287 7.01032 15.2662C7.2405 15.5037 7.55197 15.6384 7.87757 15.6413C8.20316 15.6441 8.51681 15.5149 8.75089 15.2815L10.9143 13.0434L13.0812 15.2789C13.1955 15.4013 13.3324 15.4991 13.4838 15.5664C13.6352 15.6336 13.7981 15.6691 13.9629 15.6707C14.1277 15.6723 14.2912 15.64 14.4439 15.5757C14.5965 15.5114 14.7351 15.4164 14.8517 15.2962C14.9682 15.176 15.0604 15.033 15.1228 14.8756C15.1851 14.7182 15.2164 14.5496 15.2149 14.3796C15.2133 14.2096 15.1789 14.0417 15.1137 13.8855C15.0484 13.7294 14.9536 13.5883 14.8349 13.4704L12.6715 11.2384L14.8375 9.00475C15.0639 8.76347 15.1894 8.44009 15.1867 8.10431C15.1841 7.76854 15.0537 7.44727 14.8235 7.20978C14.5933 6.97229 14.2818 6.83759 13.9562 6.83472C13.6306 6.83186 13.317 6.96106 13.0829 7.19447Z" fill="#676767"/>
<rect x="1" y="1" width="20" height="20" rx="6" stroke="#9CA3AF"/>
</svg>
