<svg width="12" height="12" viewBox="0 0 12 12" fill="none" xmlns="http://www.w3.org/2000/svg">
<path fill-rule="evenodd" clip-rule="evenodd" d="M8.08289 2.12831L5.91432 4.29517L3.74575 2.12659C3.6315 2.00761 3.49464 1.91263 3.34321 1.84721C3.19178 1.7818 3.02881 1.74728 2.86386 1.74566C2.69891 1.74405 2.53529 1.77538 2.38261 1.83782C2.22992 1.90025 2.09124 1.99254 1.97468 2.10927C1.85812 2.226 1.76604 2.36482 1.70383 2.51759C1.64162 2.67037 1.61053 2.83403 1.61238 2.99898C1.61424 3.16392 1.649 3.32684 1.71464 3.47818C1.78027 3.62952 1.87545 3.76623 1.99461 3.88031L4.16232 6.04888L1.99632 8.21488C1.76987 8.44885 1.64443 8.76244 1.64705 9.08803C1.64967 9.41363 1.78013 9.72516 2.01032 9.95546C2.2405 10.1858 2.55197 10.3164 2.87757 10.3192C3.20316 10.3219 3.51681 10.1966 3.75089 9.97031L5.91432 7.80002L8.08118 9.96774C8.19552 10.0865 8.33239 10.1813 8.48378 10.2465C8.63517 10.3117 8.79805 10.3462 8.9629 10.3477C9.12774 10.3493 9.29125 10.318 9.44385 10.2556C9.59645 10.1932 9.73509 10.1011 9.85166 9.9845C9.96823 9.86793 10.0604 9.7293 10.1228 9.57669C10.1851 9.42409 10.2164 9.26059 10.2149 9.09574C10.2133 8.9309 10.1789 8.76802 10.1137 8.61662C10.0484 8.46523 9.95365 8.32836 9.83489 8.21402L7.67146 6.04974L9.83746 3.88374C10.0639 3.64977 10.1894 3.33618 10.1867 3.01058C10.1841 2.68498 10.0536 2.37345 9.82347 2.14316C9.59328 1.91286 9.28182 1.78224 8.95622 1.77946C8.63062 1.77669 8.31697 1.90197 8.08289 2.12831Z" fill="#F87170"/>
</svg>
