<svg width="14" height="10" viewBox="0 0 14 10" fill="none" xmlns="http://www.w3.org/2000/svg">
<path fill-rule="evenodd" clip-rule="evenodd" d="M8.38496 1.46139L13.585 6.46139C13.7938 6.69212 13.9312 6.97849 13.9804 7.28575C14.0297 7.59302 13.9888 7.90799 13.8626 8.19244C13.7364 8.4769 13.5304 8.71864 13.2695 8.88832C13.0086 9.058 12.7042 9.14834 12.393 9.14839H1.61096C1.30072 9.14748 0.99737 9.05684 0.737486 8.8874C0.477603 8.71796 0.272282 8.47697 0.146282 8.19347C0.0202825 7.90997 -0.0210164 7.59607 0.0273654 7.28963C0.0757473 6.98319 0.211744 6.69728 0.418957 6.46639L5.61896 1.46639C5.79387 1.2735 6.00713 1.11927 6.24509 1.01356C6.48305 0.907856 6.74047 0.853013 7.00085 0.852542C7.26123 0.852071 7.51885 0.905984 7.75719 1.01083C7.99553 1.11567 8.20935 1.26913 8.38496 1.46139Z" fill="#D4DAE2"/>
</svg>
