<svg width="12" height="8" viewBox="0 0 12 8" fill="none" xmlns="http://www.w3.org/2000/svg">
<path fill-rule="evenodd" clip-rule="evenodd" d="M7.18711 7.03319L11.6442 2.74748C11.8232 2.54971 11.941 2.30425 11.9832 2.04088C12.0255 1.77751 11.9904 1.50754 11.8822 1.26372C11.774 1.01989 11.5975 0.812696 11.3739 0.667254C11.1503 0.521812 10.8893 0.444375 10.6225 0.444336H1.38082C1.1149 0.445119 0.854889 0.52281 0.632131 0.668041C0.409374 0.813272 0.233385 1.01984 0.125385 1.26284C0.017385 1.50584 -0.0180141 1.77489 0.0234561 2.03756C0.0649262 2.30023 0.181495 2.54529 0.359106 2.74319L4.81625 7.03319C4.96647 7.19825 5.14951 7.33013 5.35364 7.42036C5.55777 7.51059 5.77849 7.5572 6.00168 7.5572C6.22486 7.5572 6.44559 7.51059 6.64972 7.42036C6.85385 7.33013 7.03689 7.19825 7.18711 7.03319Z" fill="#D4DAE2"/>
</svg>
