<svg width="21" height="21" viewBox="0 0 21 21" fill="none" xmlns="http://www.w3.org/2000/svg">
<path d="M10.5 18C14.6421 18 18 14.6421 18 10.5C18 6.35786 14.6421 3 10.5 3C6.35786 3 3 6.35786 3 10.5C3 14.6421 6.35786 18 10.5 18Z" stroke="black" stroke-linecap="round" stroke-linejoin="round"/>
<path d="M13.7483 12.375C13.4188 12.9449 12.9452 13.418 12.3751 13.747C11.8049 14.0759 11.1583 14.2491 10.5 14.2491C9.84177 14.2491 9.1951 14.0759 8.62494 13.747C8.05478 13.4181 7.58119 12.9449 7.25171 12.3751" stroke="black" stroke-linecap="round" stroke-linejoin="round"/>
<path d="M7.6875 9.875C8.20527 9.875 8.625 9.45527 8.625 8.9375C8.625 8.41973 8.20527 8 7.6875 8C7.16973 8 6.75 8.41973 6.75 8.9375C6.75 9.45527 7.16973 9.875 7.6875 9.875Z" fill="black"/>
<path d="M13.3125 9.875C13.8303 9.875 14.25 9.45527 14.25 8.9375C14.25 8.41973 13.8303 8 13.3125 8C12.7947 8 12.375 8.41973 12.375 8.9375C12.375 9.45527 12.7947 9.875 13.3125 9.875Z" fill="black"/>
</svg>
