<svg width="15" height="16" viewBox="0 0 15 16" fill="none" xmlns="http://www.w3.org/2000/svg">
<g clip-path="url(#clip0_1490_28591)">
<path fill-rule="evenodd" clip-rule="evenodd" d="M7.5 0.5C6.01664 0.5 4.5666 0.939867 3.33323 1.76398C2.09986 2.58809 1.13856 3.75943 0.570907 5.12987C0.00324969 6.50032 -0.145275 8.00832 0.144114 9.46318C0.433503 10.918 1.14781 12.2544 2.1967 13.3033C3.2456 14.3522 4.58197 15.0665 6.03683 15.3559C7.49168 15.6453 8.99968 15.4968 10.3701 14.9291C11.7406 14.3614 12.9119 13.4001 13.736 12.1668C14.5601 10.9334 15 9.48336 15 8C15 6.01088 14.2098 4.10322 12.8033 2.6967C11.3968 1.29018 9.48913 0.5 7.5 0.5ZM10.875 9.5H7.50643C7.25993 9.49324 7.02537 9.3923 6.851 9.21793C6.67663 9.04356 6.57569 8.80901 6.56893 8.5625V4.25964C6.56893 4.011 6.6677 3.77255 6.84352 3.59673C7.01933 3.42092 7.25779 3.32214 7.50643 3.32214C7.75507 3.32214 7.99353 3.42092 8.16934 3.59673C8.34516 3.77255 8.44393 4.011 8.44393 4.25964V7.62071H10.875C11.1236 7.62071 11.3621 7.71949 11.5379 7.8953C11.7137 8.07112 11.8125 8.30957 11.8125 8.55822C11.8125 8.80686 11.7137 9.04531 11.5379 9.22113C11.3621 9.39694 11.1236 9.49572 10.875 9.49572V9.5Z" fill="#FAFAFB"/>
</g>
<defs>
<clipPath id="clip0_1490_28591">
<rect width="15" height="15" fill="white" transform="translate(0 0.5)"/>
</clipPath>
</defs>
</svg>
