<svg width="21" height="20" viewBox="0 0 21 20" fill="none" xmlns="http://www.w3.org/2000/svg">
<g clip-path="url(#clip0_1425_9823)">
<path d="M1.70703 17.07V15.6329C1.73368 15.1093 1.90295 14.603 2.19654 14.1686C2.49012 13.7343 2.89685 13.3885 3.37275 13.1686C7.94658 11.3314 13.0532 11.3314 17.627 13.1686C18.1029 13.3885 18.5097 13.7343 18.8032 14.1686C19.0968 14.603 19.2661 15.1093 19.2927 15.6329V17.07C19.2926 17.4552 19.2165 17.8366 19.0688 18.1924C18.9211 18.5481 18.7048 18.8713 18.4321 19.1434C18.1595 19.4155 17.8359 19.6312 17.4798 19.7782C17.1238 19.9252 16.7422 20.0006 16.357 20H4.64275C4.25754 20.0006 3.87601 19.9252 3.51995 19.7782C3.16389 19.6312 2.84029 19.4155 2.56765 19.1434C2.295 18.8713 2.07866 18.5481 1.93099 18.1924C1.78332 17.8366 1.70722 17.4552 1.70703 17.07ZM10.4999 2.08952e-07C9.53352 -0.000282354 8.58878 0.28602 7.78514 0.822697C6.9815 1.35937 6.35507 2.12232 5.98506 3.01504C5.61505 3.90777 5.51809 4.89016 5.70645 5.83799C5.8948 6.78582 6.36001 7.65651 7.04323 8.33993C7.72646 9.02335 8.597 9.48881 9.54478 9.67745C10.4926 9.86608 11.475 9.76941 12.3678 9.39966C13.2606 9.02992 14.0238 8.4037 14.5607 7.60022C15.0976 6.79674 15.3842 5.85208 15.3842 4.88571C15.3844 4.24418 15.2582 3.60889 15.0128 3.01614C14.7674 2.42339 14.4077 1.88478 13.9541 1.43108C13.5005 0.97738 12.962 0.617479 12.3694 0.371931C11.7767 0.126383 11.1414 1.81512e-07 10.4999 2.08952e-07Z" fill="#6B7280"/>
</g>
<defs>
<clipPath id="clip0_1425_9823">
<rect width="20" height="20" fill="white" transform="translate(0.5)"/>
</clipPath>
</defs>
</svg>
