<svg width="20" height="17" viewBox="0 0 20 17" fill="none" xmlns="http://www.w3.org/2000/svg">
<path d="M10 16.0625C10 16.0625 1.40625 11.25 1.40625 5.40626C1.40642 4.3734 1.76431 3.37249 2.41906 2.57368C3.07381 1.77488 3.98501 1.2275 4.99774 1.0246C6.01047 0.821697 7.06221 0.975806 7.97416 1.46072C8.8861 1.94564 9.60195 2.73143 10 3.6845L9.99999 3.68451C10.398 2.73144 11.1139 1.94564 12.0258 1.46073C12.9378 0.975808 13.9895 0.821698 15.0023 1.0246C16.015 1.2275 16.9262 1.77488 17.5809 2.57368C18.2357 3.37249 18.5936 4.3734 18.5938 5.40626C18.5938 11.25 10 16.0625 10 16.0625Z" stroke="#374151" stroke-width="1.8" stroke-linecap="round" stroke-linejoin="round"/>
</svg>
