<svg width="30" height="33" viewBox="0 0 30 33" fill="none" xmlns="http://www.w3.org/2000/svg">
<rect width="30" height="30" rx="15" fill="#085D7A"/>
<g clip-path="url(#clip0_4109_5875)">
<path d="M6.5 16.5C6.5 18.981 8.519 21 11 21C13.481 21 15.5 18.981 15.5 16.5C15.5 14.019 13.481 12 11 12C8.519 12 6.5 14.019 6.5 16.5ZM19 31H20V30C20 26.141 16.859 23 13 23H9C5.14 23 2 26.141 2 30V31H19Z" fill="white"/>
<path d="M21.7344 16.6562C21.7344 15.9635 21.8203 15.4115 21.9922 15C22.1641 14.5885 22.5026 14.138 23.0078 13.6484C23.5182 13.1536 23.8411 12.8021 23.9766 12.5938C24.1849 12.276 24.2891 11.9323 24.2891 11.5625C24.2891 11.0729 24.1667 10.7005 23.9219 10.4453C23.6823 10.1849 23.3281 10.0547 22.8594 10.0547C22.4115 10.0547 22.0495 10.1823 21.7734 10.4375C21.5026 10.6875 21.3672 11.0286 21.3672 11.4609H19.4688C19.4792 10.5391 19.7917 9.8099 20.4062 9.27344C21.026 8.73698 21.8438 8.46875 22.8594 8.46875C23.9062 8.46875 24.7214 8.73438 25.3047 9.26562C25.8932 9.79688 26.1875 10.5391 26.1875 11.4922C26.1875 12.3411 25.7917 13.1771 25 14L24.0391 14.9453C23.6953 15.3359 23.5182 15.9062 23.5078 16.6562H21.7344ZM21.6016 19.0859C21.6016 18.7786 21.6979 18.5312 21.8906 18.3438C22.0833 18.151 22.3438 18.0547 22.6719 18.0547C23.0052 18.0547 23.2682 18.1536 23.4609 18.3516C23.6536 18.5443 23.75 18.7891 23.75 19.0859C23.75 19.3724 23.6562 19.612 23.4688 19.8047C23.2812 19.9974 23.0156 20.0938 22.6719 20.0938C22.3281 20.0938 22.0625 19.9974 21.875 19.8047C21.6927 19.612 21.6016 19.3724 21.6016 19.0859Z" fill="white"/>
</g>
<defs>
<clipPath id="clip0_4109_5875">
<rect width="24" height="25" fill="white" transform="translate(3 8)"/>
</clipPath>
</defs>
</svg>
