<svg width="30" height="30" viewBox="0 0 30 30" fill="none" xmlns="http://www.w3.org/2000/svg">
<rect width="30" height="30" rx="15" fill="#085D7A"/>
<path d="M21.6667 22.5V20.8333C21.6667 19.9493 21.3155 19.1014 20.6904 18.4763C20.0653 17.8512 19.2174 17.5 18.3334 17.5H11.6667C10.7827 17.5 9.93481 17.8512 9.30968 18.4763C8.68456 19.1014 8.33337 19.9493 8.33337 20.8333V22.5" stroke="white" stroke-width="2" stroke-linecap="round" stroke-linejoin="round"/>
<path d="M15 14.1667C16.8409 14.1667 18.3333 12.6743 18.3333 10.8333C18.3333 8.99238 16.8409 7.5 15 7.5C13.159 7.5 11.6666 8.99238 11.6666 10.8333C11.6666 12.6743 13.159 14.1667 15 14.1667Z" stroke="white" stroke-width="2" stroke-linecap="round" stroke-linejoin="round"/>
</svg>
