<svg width="25" height="25" viewBox="0 0 25 25" fill="none" xmlns="http://www.w3.org/2000/svg">
<path d="M20.84 4.96499C20.331 4.38108 19.7266 3.91788 19.0614 3.60185C18.3961 3.28583 17.6831 3.12317 16.963 3.12317C16.243 3.12317 15.5299 3.28583 14.8647 3.60185C14.1995 3.91788 13.5951 4.38108 13.086 4.96499L12.0296 6.17624L10.9731 4.96499C9.94485 3.78608 8.55025 3.12378 7.09608 3.12378C5.64192 3.12378 4.24732 3.78608 3.21907 4.96499C2.19082 6.14389 1.61316 7.74283 1.61316 9.41005C1.61316 11.0773 2.19082 12.6762 3.21907 13.8551L4.27553 15.0664L12.0296 23.9565L19.7836 15.0664L20.84 13.8551C21.3493 13.2715 21.7533 12.5785 22.029 11.8158C22.3046 11.0531 22.4465 10.2356 22.4465 9.41005C22.4465 8.58447 22.3046 7.76698 22.029 7.00428C21.7533 6.24158 21.3493 5.54862 20.84 4.96499V4.96499Z" stroke="#231F20" stroke-width="2" stroke-linecap="round" stroke-linejoin="round"/>
</svg>
