<svg width="414" height="200" viewBox="0 0 414 200" fill="none" xmlns="http://www.w3.org/2000/svg">
<path d="M-0.419811 284C-1.35598 270.761 5.02304 256.484 16.2108 246.744C26.408 237.88 38.9892 233.347 51.0669 229.783C118.172 209.969 189.043 212.334 257.599 214.619C318.855 216.664 382.202 218.776 442.844 205.122C451.479 203.179 460.552 200.811 468.275 195.239C476.57 189.253 481.823 179.873 481.981 170.766C482.28 153.672 466.37 141.978 456.862 136.52C420.751 115.792 376.307 107.995 317.035 111.974C272.091 115.033 227.528 123.356 184.02 136.815C174.222 139.844 164.248 143.197 154.612 146.435C120.115 158.037 84.4479 170.028 48.0679 170.028H47.5236C37.6475 169.997 24.9684 167.67 20.6468 156.771C17.596 149.078 20.1623 140.31 22.8511 134.32C31.8318 114.279 48.8353 102.598 61.5172 96.3328C75.7584 89.2925 91.2379 85.4621 106.203 81.771L111.532 80.4478C145.076 72.0348 178.23 61.637 210.864 49.295C226.278 43.4639 234.186 35.8791 235.046 26.11C235.808 17.4425 230.341 9.85455 224.582 6.16661C217.686 1.76008 209.536 1.1871 203.208 1.18394H203.118C184.014 1.18384 165.197 6.59691 148.295 16.955C142.066 20.7854 136.049 25.3471 130.241 29.7568C122.548 35.5942 114.59 41.631 106.021 46.0724C89.4145 54.6448 69.793 57.8073 47.6379 55.4584C30.5419 53.6445 17.5117 48.7631 7.80162 40.5325C1.94239 35.5657 -2.94802 29.1616 -7.67786 22.9634C-13.4255 15.4355 -19.38 7.6513 -27 2.59581L-26.4938 1.56381C-18.7105 6.71744 -12.7098 14.5777 -6.89953 22.1783C-2.20779 28.3259 2.64724 34.6825 8.41666 39.5892C17.9743 47.69 30.8385 52.4986 47.744 54.2903C69.7059 56.6202 89.175 53.4926 105.602 44.9897C114.103 40.5895 122.025 34.578 129.686 28.7659C135.518 24.3341 141.549 19.7661 147.819 15.9072C164.869 5.46078 183.85 0.00109822 203.121 0H203.211C209.661 0 217.978 0.591974 225.078 5.1283C231.13 8.99352 236.872 17.0152 236.064 26.2208C235.158 36.5059 227.021 44.4199 211.182 50.4156C178.515 62.7706 145.326 73.1779 111.747 81.5969C109.972 82.0422 108.195 82.4843 106.415 82.9233C91.4828 86.5954 76.0523 90.4131 61.9009 97.4092C49.3823 103.604 32.5884 115.137 23.741 134.858C21.1584 140.62 18.6846 149.012 21.5639 156.264C25.646 166.597 37.936 168.8 47.5154 168.832H48.0597C84.2982 168.832 119.905 156.863 154.323 145.286C163.965 142.044 173.934 138.692 183.753 135.659C227.327 122.179 271.958 113.844 316.969 110.781C376.438 106.786 421.031 114.624 457.308 135.444C467.034 141.028 483.306 153.042 482.996 170.782C482.83 180.279 477.392 190.041 468.806 196.24C460.938 201.919 451.759 204.312 443.034 206.278C382.281 219.966 318.877 217.851 257.563 215.806C189.09 213.524 118.281 211.162 51.3118 230.935C39.3375 234.468 26.8707 238.947 16.8177 247.694C5.89934 257.19 -0.327284 271.068 0.592558 283.905L-0.419811 284Z" fill="#FFDE00"/>
</svg>
