<svg width="22" height="24" viewBox="0 0 22 24" fill="none" xmlns="http://www.w3.org/2000/svg">
<path d="M17 11H3C1.89543 11 1 11.8954 1 13V20C1 21.1046 1.89543 22 3 22H17C18.1046 22 19 21.1046 19 20V13C19 11.8954 18.1046 11 17 11Z" stroke="white" stroke-width="2" stroke-linecap="round" stroke-linejoin="round"/>
<path d="M5 11V7C5 5.67392 5.52678 4.40215 6.46447 3.46447C7.40215 2.52678 8.67392 2 10 2C11.3261 2 12.5979 2.52678 13.5355 3.46447C14.4732 4.40215 15 5.67392 15 7V11" stroke="white" stroke-width="2" stroke-linecap="round" stroke-linejoin="round"/>
</svg>
