<svg width="20" height="20" viewBox="0 0 20 20" fill="none" xmlns="http://www.w3.org/2000/svg">
<g filter="url(#filter0_i_890:577)">
<rect width="20" height="20" rx="10" fill="#085D7A"/>
</g>
<path d="M6.75 3C6.28587 3 5.84075 3.18437 5.51256 3.51256C5.18437 3.84075 5 4.28587 5 4.75V15.25C5 16.216 5.784 17 6.75 17H9.257C9.00233 16.6915 8.78203 16.3562 8.6 16H6.75C6.55109 16 6.36032 15.921 6.21967 15.7803C6.07902 15.6397 6 15.4489 6 15.25V4.75C6 4.55109 6.07902 4.36032 6.21967 4.21967C6.36032 4.07902 6.55109 4 6.75 4H13.25C13.4489 4 13.6397 4.07902 13.7803 4.21967C13.921 4.36032 14 4.55109 14 4.75V8.022C14.343 8.053 14.678 8.116 15 8.207V4.75C15 4.28587 14.8156 3.84075 14.4874 3.51256C14.1592 3.18437 13.7141 3 13.25 3H6.75ZM9 10C9 10.2652 8.89464 10.5196 8.70711 10.7071C8.51957 10.8946 8.26522 11 8 11C7.73478 11 7.48043 10.8946 7.29289 10.7071C7.10536 10.5196 7 10.2652 7 10C7 9.73478 7.10536 9.48043 7.29289 9.29289C7.48043 9.10536 7.73478 9 8 9C8.26522 9 8.51957 9.10536 8.70711 9.29289C8.89464 9.48043 9 9.73478 9 10ZM18 13.5C18 14.6935 17.5259 15.8381 16.682 16.682C15.8381 17.5259 14.6935 18 13.5 18C12.3065 18 11.1619 17.5259 10.318 16.682C9.47411 15.8381 9 14.6935 9 13.5C9 12.3065 9.47411 11.1619 10.318 10.318C11.1619 9.47411 12.3065 9 13.5 9C14.6935 9 15.8381 9.47411 16.682 10.318C17.5259 11.1619 18 12.3065 18 13.5ZM11.147 13.146L11.144 13.149C11.0523 13.2417 11.0006 13.3666 11 13.497V13.503C11.0006 13.6344 11.0531 13.7602 11.146 13.853L13.146 15.853C13.2398 15.9469 13.367 15.9997 13.4996 15.9998C13.6323 15.9999 13.7596 15.9473 13.8535 15.8535C13.9474 15.7597 14.0002 15.6325 14.0003 15.4999C14.0004 15.3672 13.9478 15.2399 13.854 15.146L12.707 14H15.5C15.6326 14 15.7598 13.9473 15.8536 13.8536C15.9473 13.7598 16 13.6326 16 13.5C16 13.3674 15.9473 13.2402 15.8536 13.1464C15.7598 13.0527 15.6326 13 15.5 13H12.707L13.854 11.854C13.9479 11.7601 14.0006 11.6328 14.0006 11.5C14.0006 11.3672 13.9479 11.2399 13.854 11.146C13.7601 11.0521 13.6328 10.9994 13.5 10.9994C13.3672 10.9994 13.2399 11.0521 13.146 11.146L11.146 13.146H11.147Z" fill="#F8F8F8"/>
<defs>
<filter id="filter0_i_890:577" x="0" y="0" width="20" height="24" filterUnits="userSpaceOnUse" color-interpolation-filters="sRGB">
<feFlood flood-opacity="0" result="BackgroundImageFix"/>
<feBlend mode="normal" in="SourceGraphic" in2="BackgroundImageFix" result="shape"/>
<feColorMatrix in="SourceAlpha" type="matrix" values="0 0 0 0 0 0 0 0 0 0 0 0 0 0 0 0 0 0 127 0" result="hardAlpha"/>
<feOffset dy="4"/>
<feGaussianBlur stdDeviation="2"/>
<feComposite in2="hardAlpha" operator="arithmetic" k2="-1" k3="1"/>
<feColorMatrix type="matrix" values="0 0 0 0 0 0 0 0 0 0 0 0 0 0 0 0 0 0 0.25 0"/>
<feBlend mode="normal" in2="shape" result="effect1_innerShadow_890:577"/>
</filter>
</defs>
</svg>
