<svg width="414" height="305" viewBox="0 0 414 305" fill="none" xmlns="http://www.w3.org/2000/svg">
<path d="M181.288 137.118C179.924 134.922 176.334 136.913 177.703 139.114C188.238 156.079 202.667 171.179 210.626 189.512C211.634 191.832 215.653 190.814 214.629 188.459C206.508 169.782 192.027 154.423 181.288 137.118Z" fill="#FFF5CA"/>
<path d="M355.726 88.6608C355.357 75.6048 351.154 63.0097 344.335 51.797C342.964 49.5493 339.341 51.5922 340.718 53.8449C347.167 64.4382 351.181 76.296 351.539 88.6608C351.898 101.026 348.723 113.134 343.676 124.419C342.621 126.794 346.223 128.868 347.294 126.467C352.641 114.517 356.096 101.778 355.726 88.6608Z" fill="#FFF5CA"/>
<path d="M268.508 8.26755C277.524 9.27202 286.376 11.5987 294.826 15.1852C297.255 16.2092 298.302 11.9351 295.903 10.9222C287.103 7.22837 277.888 4.84915 268.508 3.8487C265.921 3.56487 265.941 7.98929 268.508 8.26755Z" fill="#FFF5CA"/>
<path d="M339.428 70.5158C340.249 72.9841 343.999 71.9226 343.169 69.4285C339.609 58.7101 333.798 49.1563 326.435 40.9062C324.721 38.984 321.982 41.8801 323.691 43.797C330.586 51.5215 336.098 60.4724 339.428 70.5158Z" fill="#FFF5CA"/>
<path d="M306.831 25.1306C292.779 17.1459 276.82 12.787 260.502 12.4762C252.132 12.3535 243.782 13.3126 235.677 15.328C231.566 16.3469 227.533 17.6397 223.608 19.1972C221.792 19.9162 219.992 20.6646 218.222 21.506C217.357 21.9071 216.06 22.3375 215.389 22.9734C213.548 24.7442 216.406 27.4932 218.242 25.7225C218.781 25.204 220.455 24.7442 221.146 24.4458C223.048 23.5784 224.985 22.7843 226.955 22.0636C230.614 20.7226 234.36 19.6099 238.169 18.7325C245.798 16.9677 253.635 16.1782 261.479 16.3845C276.749 16.8355 291.651 20.9989 304.797 28.4862C307.045 29.7531 309.079 26.3975 306.831 25.1306Z" fill="#FFF5CA"/>
<path d="M182.545 123.728C181.27 121.491 177.336 123.447 178.605 125.67C182.07 131.638 185.989 137.41 190.338 142.951C191.94 145.018 195.891 143.086 194.278 141.009C189.93 135.469 186.011 129.696 182.545 123.728Z" fill="#FFF5CA"/>
<path d="M341.202 105.962C338.515 116.496 333.812 126.357 328.151 135.601C325.218 140.399 322.059 145.055 318.844 149.674C317.326 151.85 315.803 154.027 314.275 156.206C313.28 157.628 310.685 160.178 310.685 162.018C310.685 164.624 314.757 164.624 314.757 162.018C314.757 162.697 315.546 161.478 315.577 161.447C315.987 160.938 316.321 160.377 316.685 159.851C317.428 158.781 318.182 157.71 318.931 156.634C320.562 154.304 322.197 151.979 323.813 149.639C327.028 144.973 330.177 140.252 333.043 135.362C338.258 126.48 342.586 117.006 345.135 107.028C345.776 104.514 341.848 103.433 341.202 105.962Z" fill="#FFF5CA"/>
<path d="M322.886 132.191C314.848 145.528 304.975 157.709 297.235 171.228C289.495 184.746 283.877 200.204 285.501 215.717C276.667 216.851 267.792 217.307 258.902 217.671C250.012 217.307 241.142 216.851 232.303 215.717C233.927 200.204 228.314 184.746 220.574 171.228C212.834 157.709 202.956 145.528 194.923 132.191C186.89 118.855 180.638 103.747 181.278 88.1427C182.241 63.8704 200.203 42.7928 221.81 31.8566L222.162 31.6794C233.579 25.9798 246.155 23.0137 258.905 23.0137C271.654 23.0137 284.23 25.9798 295.647 31.6794L295.995 31.8566C317.602 42.7928 335.563 63.8704 336.531 88.1427C337.166 103.747 330.899 118.85 322.886 132.191Z" fill="#F9E26B"/>
<path opacity="0.5" d="M329.859 88.5435C329.683 73.6986 323.793 58.7134 311.997 48.9371C308.155 45.7536 302.332 50.9726 306.21 54.1862C316.781 62.9447 322.071 76.08 321.937 89.4409C321.781 104.747 314.991 119.02 306.076 131.363C303.139 135.424 309.861 139.495 312.799 135.459C322.676 121.788 330.056 105.524 329.859 88.5435Z" fill="#FFF5CA"/>
<path d="M279.997 243.213C280.041 246.013 279.527 248.794 278.487 251.394C277.446 253.994 275.899 256.361 273.936 258.356C271.973 260.352 269.633 261.937 267.053 263.019C264.472 264.1 261.702 264.658 258.904 264.658C256.106 264.658 253.336 264.1 250.756 263.019C248.175 261.937 245.835 260.352 243.872 258.356C241.909 256.361 240.362 253.994 239.322 251.394C238.281 248.794 237.767 246.013 237.811 243.213C237.811 231.552 247.252 220.548 258.902 220.548C270.551 220.548 279.997 231.552 279.997 243.213Z" fill="#6F8AB2"/>
<g style="mix-blend-mode:multiply" opacity="0.35">
<path d="M279.997 243.213C280.041 246.013 279.527 248.794 278.487 251.394C277.446 253.994 275.899 256.361 273.936 258.356C271.973 260.352 269.633 261.937 267.053 263.019C264.472 264.1 261.702 264.658 258.904 264.658C256.106 264.658 253.336 264.1 250.756 263.019C248.175 261.937 245.835 260.352 243.872 258.356C241.909 256.361 240.362 253.994 239.322 251.394C238.281 248.794 237.767 246.013 237.811 243.213C237.811 231.552 247.252 220.548 258.902 220.548C270.551 220.548 279.997 231.552 279.997 243.213Z" fill="#6F8AB2"/>
</g>
<path d="M287.841 215.324C287.841 216.596 288.623 217.622 289.589 217.622V223.765C288.623 223.765 287.841 224.801 287.841 226.063C287.841 227.154 288.413 228.065 289.185 228.306C289.316 228.345 289.452 228.365 289.589 228.366V232.181C289.59 233.768 289.15 235.326 288.316 236.686L280.583 249.368C280.418 249.645 280.181 249.874 279.897 250.034C279.613 250.193 279.29 250.276 278.963 250.274H238.861C238.533 250.274 238.21 250.191 237.925 250.032C237.64 249.873 237.402 249.644 237.235 249.368L229.512 236.676C228.821 235.543 228.4 234.272 228.281 232.957C228.474 232.949 228.664 232.901 228.838 232.816C229.211 232.592 229.515 232.272 229.717 231.891C229.918 231.51 230.01 231.082 229.983 230.654C229.983 229.387 229.206 228.351 228.245 228.351V222.213H228.424C229.303 222.098 229.957 221.121 229.957 219.925C229.957 218.728 229.18 217.622 228.219 217.622V208.34L258.886 207.123L289.553 208.34V213.006H289.369C288.546 213.136 287.841 214.117 287.841 215.324Z" fill="#6F8AB2"/>
<path d="M290.162 197.534H227.647C226.374 197.534 225.342 198.552 225.342 199.807V206.768C225.342 208.023 226.374 209.041 227.647 209.041H290.162C291.434 209.041 292.466 208.023 292.466 206.768V199.807C292.466 198.552 291.434 197.534 290.162 197.534Z" fill="#879DC1"/>
<g style="mix-blend-mode:multiply" opacity="0.35">
<path d="M229.958 220.075C229.958 218.751 229.18 217.669 228.219 217.669L289.405 212.877C288.531 212.997 287.84 214.022 287.84 215.267C287.84 216.596 288.623 217.669 289.589 217.669L228.398 222.466C229.278 222.345 229.958 221.325 229.958 220.075Z" fill="#6F8AB2"/>
</g>
<g style="mix-blend-mode:multiply" opacity="0.35">
<path d="M287.85 225.95C287.85 227.093 288.423 228.046 289.195 228.298L228.812 233.014C229.186 232.779 229.49 232.444 229.692 232.045C229.894 231.646 229.986 231.198 229.958 230.75C229.958 229.424 229.181 228.34 228.219 228.34V228.245L289.589 223.425V223.524C288.633 223.545 287.85 224.63 287.85 225.95Z" fill="#6F8AB2"/>
</g>
<path d="M288.453 200.286C288.278 198.938 285.735 199.337 285.909 200.68C286.136 202.461 286.088 204.257 285.769 206.028C285.532 207.372 288.109 207.537 288.346 206.198C288.685 204.239 288.721 202.253 288.453 200.286Z" fill="#AFC6E8"/>
<path d="M286.622 234.665C287.159 233.112 285.137 232.296 284.604 233.843C283.891 235.905 280.355 243.62 279.258 245.407C278.429 246.755 280.184 248.205 281.031 246.863C282.244 244.887 285.84 236.944 286.622 234.665Z" fill="#879DC1"/>
<path opacity="0.5" d="M352.877 302.055C389.948 302.055 420 300.552 420 298.699C420 296.845 389.948 295.342 352.877 295.342C315.806 295.342 285.753 296.845 285.753 298.699C285.753 300.552 315.806 302.055 352.877 302.055Z" fill="#7DA1B7"/>
<path d="M368.323 287.5C368.354 287.281 366.763 274.708 366.773 274.374C366.832 272.93 369.145 272.571 371.06 275.535C374.833 281.368 378.733 277.528 378.86 280.018C379.364 289.707 382.251 297.483 379.539 300.94C377.656 303.341 371.257 305.05 366.582 304.925C361.908 304.801 360.804 303.55 365.42 295.461C366.893 292.994 367.877 290.297 368.323 287.5Z" fill="#16162B"/>
<path d="M344.072 279.041L345.205 299.94C334.764 301.389 324.185 301.476 313.721 300.198C313.495 300.169 313.281 300.079 313.1 299.936C312.919 299.794 312.779 299.604 312.695 299.388C312.61 299.171 312.583 298.935 312.617 298.704C312.652 298.473 312.746 298.255 312.89 298.074C314.734 295.755 318 295.161 320.782 294.163C324.013 293.006 324.431 293.342 327.621 292.097C331.971 290.361 333.211 284.797 333.901 280.059C337.046 278.855 340.745 279.072 344.072 279.041Z" fill="#16162B"/>
<path d="M381.644 281.646C378.049 283.258 374.143 284.087 370.192 284.076C368.53 284.078 366.87 283.934 365.234 283.647C354.675 239.192 349.635 155.154 349.635 155.154C349.635 154.906 349.563 154.037 349.542 153.704C346 197.86 341.381 255.89 346.868 284.606C344.353 285.349 339.63 285.753 336.838 285.753C334.053 285.759 331.283 285.345 328.625 284.526C326.582 269.88 325.285 255.143 324.74 240.369C322.84 189.746 325.833 160.14 325.915 159.13C327.173 143.412 329.092 130.494 329.092 130.494C329.092 130.494 330.252 122.446 331.104 117.707C331.104 117.54 331.151 117.378 331.176 117.202C331.305 116.484 331.438 115.762 331.556 115.054L349.383 114.68L376.778 114.11C376.516 115.964 376.208 118.54 375.89 121.855C375.818 122.572 375.761 123.305 375.695 124.078C375.022 132.601 374.617 145.029 374.504 159.246C374.504 159.938 374.504 160.625 374.504 161.322C374.391 185.098 375.135 213.471 377.009 236.762C378.076 250.257 379.586 265.191 381.644 281.646Z" fill="#3E3E63"/>
<path d="M352.191 157.243C351.759 153.635 352.01 150.026 351.644 146.418C351.557 145.537 350.07 145.527 350.157 146.418C350.387 148.779 350.36 151.141 350.431 153.502C349.208 151.991 348.264 150.3 347.638 148.499C347.342 147.66 345.905 147.99 346.205 148.871C347.102 151.438 348.583 153.796 350.546 155.783C350.584 156.266 350.628 156.755 350.688 157.243C351.125 160.893 351.633 164.425 351.234 168.105C351.136 168.99 352.623 168.985 352.721 168.105C353.142 164.415 352.623 160.903 352.191 157.243Z" fill="#16162B"/>
<path d="M373.973 158.91C373.973 159.639 373.973 160.362 373.973 161.096C369.647 155.693 366.962 148.882 366.305 141.649C366.22 140.724 367.506 140.734 367.591 141.649C368.181 147.978 370.399 153.977 373.973 158.91Z" fill="#16162B"/>
<path d="M310.332 28.7677C309.849 28.742 309.344 29.6299 308.761 31.2875C308.405 32.2856 308.112 33.3017 307.883 34.3308C307.6 35.5215 307.267 36.8969 307.039 38.4365C306.421 42.0172 306.05 45.6307 305.929 49.2549C305.884 50.2813 305.929 51.3334 305.901 52.4111C305.873 53.4889 305.901 54.5871 305.99 55.7059C306.078 57.9538 306.334 60.2632 306.639 62.6342C306.945 65.0052 307.433 67.2941 308.017 69.4753C308.276 70.577 308.579 71.6461 308.927 72.6828C309.266 73.7092 309.588 74.7356 309.971 75.7056C310.675 77.5545 311.498 79.3626 312.437 81.1199C313.243 82.6626 314.171 84.1481 315.214 85.5643C316.076 86.762 317.057 87.8822 318.146 88.9104C318.992 89.7495 319.958 90.4781 321.017 91.0762C322.866 92.1026 324.504 92.3335 325.743 91.7125C326.981 91.0915 327.697 89.6905 327.892 87.7916C327.976 86.7198 327.961 85.6433 327.847 84.5738C327.725 83.378 327.448 82.095 327.148 80.6837C326.34 77.4836 325.358 74.3233 324.204 71.215C323.888 70.3375 323.571 69.4393 323.244 68.531C322.916 67.6226 322.55 66.6886 322.211 65.734C321.506 63.8249 320.773 61.8541 320.028 59.8321C319.284 57.8101 318.585 55.7932 317.946 53.8378C317.602 52.8627 317.285 51.8996 316.996 50.9485C316.707 49.999 316.38 49.0701 316.113 48.1515C315.586 46.3194 315.03 44.5591 314.608 42.9117C314.186 41.2643 313.753 39.699 313.398 38.2928C313.042 36.8866 312.748 35.5523 312.454 34.3975C312.159 33.2428 311.898 32.3191 311.698 31.4209C311.254 29.7274 310.821 28.7882 310.332 28.7677Z" fill="#FFA59D"/>
<path d="M323.997 67.1233L318.356 76.74L325.05 92.0548C325.05 92.0548 330.042 89.1027 333.699 80.6637C333.67 80.6479 331.207 68.7657 323.997 67.1233Z" fill="#FFA59D"/>
<path d="M372.055 16.3061C371.074 19.9867 370.09 23.6709 369.102 27.3586C368.419 29.9217 367.604 32.6796 365.497 34.2848C364.51 35.0076 363.33 35.4213 362.108 35.4738C360.886 35.5262 359.676 35.2151 358.63 34.5795C361.63 31.8127 363.87 28.3204 365.135 24.4376C365.718 22.6007 366.096 20.6692 367.068 19.006C367.58 18.1482 368.313 17.4446 369.191 16.9694C370.069 16.4942 371.058 16.265 372.055 16.3061Z" fill="#86472F"/>
<path d="M395.068 84.8761C389.882 87.3662 384.325 89.0086 378.613 89.7403C377.906 99.8739 377.427 111.457 377.162 120.298C377.096 122.665 376.378 141.392 376.342 143.271C347.735 145.171 329.294 142.02 326.982 137.591C330.409 121.2 333.603 98.7086 334.621 80.5237C326.401 76.379 324.11 67.5627 324.11 67.5627L332.391 54.8652C335.721 49.5856 341.884 49.6869 354.799 43.1507C357.407 44.1894 359.755 44.3009 362.372 45.3446C362.413 45.3529 362.451 45.3702 362.484 45.3953L363.279 45.5068C363.763 45.5828 364.46 45.7094 365.316 45.9172C365.316 45.9172 365.357 45.9172 365.362 45.9172C365.367 45.9172 367.017 46.1705 367.455 45.9172C369.691 46.4239 371.101 47.4372 375.507 49.2816L375.66 49.3424C377.829 50.383 379.925 51.5679 381.934 52.8891C384.633 54.1493 387.023 55.9805 388.937 58.2549C391.781 61.7219 393.514 65.9579 393.912 70.4153L395.068 84.8761Z" fill="#F96969"/>
<path d="M349.041 46.8649C353.589 47.9949 358.311 48.2412 362.951 47.5907C363.316 47.2053 363.681 46.8099 364.056 46.3844C363.886 45.8389 363.721 45.2883 363.591 44.7277C363.131 42.906 362.919 41.0304 362.961 39.1519V39.0218C362.994 37.8207 363.121 36.6241 363.341 35.4431C363.456 34.8825 363.571 34.3269 363.726 33.7864C363.931 33.0406 364.166 32.2848 364.441 31.5741C364.796 30.6715 365.214 29.7951 365.691 28.9513C365.871 28.591 366.081 28.2356 366.301 27.8852L365.801 27.8402C364.999 27.7976 364.194 27.7976 363.391 27.8402C361.771 27.9127 360.164 28.1696 358.601 28.606C355.396 29.5369 352.556 31.2587 350.886 33.7613C350.995 34.9258 351.031 36.0959 350.996 37.265C350.996 37.7655 350.951 38.266 350.906 38.8066C350.841 39.4673 350.766 40.1379 350.666 40.8086C350.631 41.0439 350.586 41.2741 350.556 41.5144C350.456 42.0449 350.346 42.5755 350.216 43.111C350.041 43.8268 349.841 44.5425 349.611 45.2483C349.441 45.7738 349.251 46.3094 349.041 46.8649Z" fill="#FFA59D"/>
<path d="M352.364 19.1781C348.999 16.3167 347.326 11.1901 351.572 7.73255C353.852 7.65148 353.603 7.53226 355.753 8.25714C354.534 12.2822 353.588 15.2008 352.364 19.1781Z" fill="#683221"/>
<path d="M350 43.1507C360.493 41.0058 365.342 30.2864 365.342 30.2864L359.435 28.7671C355.817 29.6906 352.627 31.3936 350.748 33.8811C350.871 35.0362 350.912 36.1969 350.872 37.3565C350.872 37.853 350.821 38.3793 350.771 38.8858C350.698 39.5461 350.613 40.2064 350.501 40.8718C350.461 41.1001 350.411 41.3335 350.371 41.5619C350.259 42.0981 350.135 42.6244 350 43.1507Z" fill="#DD6478"/>
<path d="M351.46 7.95146C352.279 13.14 351.453 18.4637 349.107 23.1259C347.784 25.7473 345.931 28.3687 346.189 31.3338C346.521 35.2121 350.727 37.8181 354.457 37.341C358.187 36.8639 361.299 34.0886 363.483 30.9234C365.473 28.0047 366.879 24.7035 367.618 21.2139C368.357 17.7243 368.415 14.1168 367.788 10.6037C362.717 8.07388 357.036 7.15124 351.46 7.95146Z" fill="#FFA59D"/>
<path d="M367.958 24.9315C366.353 23.3105 365.287 21.1901 364.918 18.8837C364.548 16.5773 364.896 14.2073 365.908 12.1241C359.082 12.8368 348.849 13.2654 346.164 7.38847C349.021 6.95983 350.447 5.38989 352.228 3.53075C360.154 -4.73209 368.681 3.58239 368.253 7.47626C369.082 7.35706 369.924 7.41065 370.732 7.63397C371.541 7.85729 372.299 8.24595 372.964 8.77766C373.58 9.24746 374.08 9.86532 374.423 10.5796C374.765 11.2938 374.939 12.0837 374.931 12.8833C374.882 14.5565 373.948 16.0903 373.023 17.5311C371.504 19.8189 369.837 22.8606 367.958 24.9315Z" fill="#86472F"/>
<path d="M366.695 23.6357C366.657 23.3111 366.707 22.979 366.836 22.7C366.965 22.4209 367.164 22.2134 367.397 22.1152C367.634 22.0295 367.884 22.0351 368.118 22.1315C368.353 22.2278 368.562 22.411 368.723 22.6601C369.045 23.1656 369.206 23.82 369.174 24.4838C369.139 25.1404 369.004 25.7804 368.779 26.3645C368.49 27.2652 367.988 28.0127 367.351 28.4914C367.031 28.7215 366.665 28.8109 366.304 28.7471C365.944 28.6832 365.608 28.4694 365.342 28.1355C366.061 26.7293 366.989 25.3011 366.695 23.6357Z" fill="#FFA59D"/>
<path d="M352.871 24.851C352.871 24.941 352.494 24.976 352.019 24.851C351.342 24.6935 350.773 24.3816 350.412 23.9711C350.417 23.9597 350.417 23.9476 350.412 23.9361C350.173 23.6576 350.036 23.346 350.012 23.0262C349.963 22.7217 350.064 22.4149 350.299 22.1513C350.389 22.0663 350.465 22.0413 350.54 22.0613C350.577 22.0719 350.608 22.0893 350.631 22.1113C350.732 22.3272 350.811 22.5478 350.865 22.7712C350.959 23.0245 351.098 23.2695 351.279 23.5012C351.296 23.5314 351.319 23.56 351.347 23.5861C351.633 23.9146 352.003 24.2073 352.441 24.4511C352.705 24.641 352.916 24.771 352.871 24.851Z" fill="#DD6478"/>
<path d="M322.466 64.632C324.143 69.0086 325.636 73.4511 326.966 77.9241C327.007 78.0674 326.985 78.2197 326.904 78.3481C326.822 78.4765 326.688 78.5705 326.531 78.6099C326.373 78.6493 326.205 78.6308 326.063 78.5584C325.92 78.486 325.815 78.3656 325.77 78.2233C324.445 73.7504 322.975 69.3028 321.27 64.9313C321.008 64.2466 322.204 63.9525 322.466 64.632Z" fill="#DD6478"/>
<path d="M309.113 38.3562C310.447 37.785 311.855 37.3704 313.302 37.1223C314.438 36.162 315.26 34.9185 316.26 33.8191C318.082 31.7975 320.461 30.2606 323.15 29.3684C323.15 29.3684 323.333 26.094 317.323 28.8883C316.88 28.2821 316.558 27.6093 316.37 26.9006C315.183 23.4053 314 19.9069 312.82 16.4052C312.653 15.8915 312.297 15.2721 311.721 15.349C311.145 15.4258 311.019 15.9875 310.935 16.458C310.595 18.2873 311.412 20.299 311.082 22.1282C310.841 23.3957 310.558 24.7449 309.605 25.6667C309.04 26.1948 307.155 26.3484 306.464 26.7325H306.438C301.993 29.3396 308.768 37.9193 309.113 38.3562Z" fill="#FFA59D"/>
<path d="M347.869 55.8658C348.307 56.3973 348.864 56.8238 349.497 57.1128C350.13 57.4018 350.822 57.5457 351.521 57.5335C354.798 57.5335 359.097 54.6477 365.054 48.4631C365.449 48.0501 365.861 47.6266 366.268 47.1666C366.62 46.8058 367.005 46.3824 367.396 45.9589L368.219 45.0493C368.219 45.0493 368.182 45.0493 368.171 45.0493C367.251 44.8349 366.524 44.7042 366.032 44.6258L365.198 44.5108C365.157 44.4893 365.114 44.4701 365.07 44.4533C362.327 43.3711 359.595 42.3046 356.857 41.2329C354.28 42.5085 351.451 43.7841 348.591 45.0649C347.922 45.3525 347.275 45.5877 346.607 45.8857L346.457 45.9537C346.061 48.4265 345.725 53.3303 347.869 55.8658Z" fill="white"/>
<path d="M363.055 47.2498C363.432 46.8975 363.809 46.536 364.196 46.1471C364.583 45.7581 364.955 45.4104 365.342 45.026C365.296 45.026 364.568 44.9254 364.521 44.9254C364.475 44.9254 363.799 44.66 363.716 44.6325C361.294 43.7678 358.837 42.0885 356.425 41.2329C354.185 42.2395 351.778 44.0698 349.285 45.0855L348.484 45.4104C348.484 45.4104 344.281 64.9299 363.055 47.2498Z" fill="#FFA59D"/>
<path d="M338.18 63.693C336.339 71.2588 335.008 78.8968 333.707 86.5451C333.588 87.2568 334.841 87.5765 334.966 86.8442C336.267 79.2011 337.592 71.5579 339.44 63.9973C339.588 63.2856 338.329 62.9813 338.18 63.693Z" fill="#E54E4E"/>
<path d="M361.255 17.1554C360.079 16.3581 358.783 15.7529 357.417 15.3624C357.274 15.3232 357.122 15.3423 356.994 15.4153C356.866 15.4884 356.771 15.6095 356.732 15.7521C356.693 15.8946 356.712 16.0468 356.785 16.1753C356.858 16.3038 356.979 16.398 357.122 16.4372C358.391 16.807 359.594 17.376 360.685 18.1232C361.291 18.5256 361.846 17.5578 361.255 17.1554Z" fill="#86472F"/>
<path d="M352.399 15.5991C351.854 15.5383 351.317 15.4592 350.79 15.3622C349.998 15.2175 349.663 15.9116 350.444 16.0564C350.972 16.1553 351.511 16.2344 352.058 16.2932C352.886 16.3853 353.232 15.6879 352.399 15.5991Z" fill="#86472F"/>
<path d="M356.21 27.7474C353.432 27.6783 350.323 26.7016 349.19 25.9912C349.102 25.9353 349.001 25.9015 348.897 25.8927C348.792 25.8839 348.687 25.9005 348.591 25.9408C348.494 25.9812 348.41 26.0443 348.344 26.1244C348.278 26.2046 348.233 26.2994 348.212 26.4006C346.999 34.2934 354.615 31.7233 356.55 28.6945C356.836 28.2555 356.756 27.7572 356.21 27.7474Z" fill="white"/>
<path d="M396.98 106.19C397.066 109.35 396.292 112.473 394.742 115.222L372.181 155.342L372.14 155.276C370.191 151.967 368.863 148.327 368.219 144.537L368.459 143.911L377.361 120.781L381.807 109.226L378.804 89.7839C378.804 89.6198 378.804 89.4557 378.834 89.3019C384.552 88.5629 390.115 86.9022 395.307 84.3836L396.98 106.19Z" fill="#FFA59D"/>
<path d="M380.679 91.5198C379.506 84.1529 378.862 84.518 376.877 77.2103C376.692 76.5293 374.751 76.554 374.945 77.2399C376.93 84.5526 377.592 84.1825 378.747 91.5494C378.862 92.2402 380.803 92.2156 380.679 91.5198Z" fill="#E54E4E"/>
<path d="M123.906 37.3973H178.149C178.967 37.3973 179.751 37.7202 180.33 38.295C180.908 38.8697 181.233 39.6493 181.233 40.4622V74.2528C181.233 75.0657 180.908 75.8453 180.33 76.42C179.751 76.9948 178.967 77.3177 178.149 77.3177H132.946C132.64 77.318 132.346 77.4393 132.129 77.6549L122.801 86.9262C122.638 87.086 122.432 87.1947 122.208 87.2385C121.984 87.2824 121.751 87.2596 121.54 87.1729C121.329 87.0862 121.148 86.9395 121.02 86.7511C120.893 86.5628 120.824 86.3412 120.822 86.114V40.4571C120.823 39.6451 121.149 38.8668 121.727 38.2931C122.305 37.7195 123.089 37.3973 123.906 37.3973Z" fill="#FFF5CA"/>
<path d="M145.95 69.9852L147.851 69.7099C148.016 69.6936 148.169 69.6194 148.28 69.5018C148.391 69.3842 148.453 69.2313 148.453 69.0728L148.378 67.2938C149.353 66.9387 150.255 66.4209 151.041 65.7647L152.639 66.6516C152.785 66.7258 152.956 66.7449 153.116 66.7053C153.277 66.6658 153.416 66.5702 153.507 66.4375L154.646 64.9542C154.752 64.8318 154.806 64.6758 154.797 64.5171C154.789 64.3584 154.718 64.2087 154.599 64.0979L153.289 62.8694C153.718 61.9501 153.971 60.9641 154.034 59.9589L155.829 59.4951C155.988 59.4509 156.124 59.3506 156.209 59.2144C156.294 59.0781 156.322 58.9162 156.287 58.7611L155.994 56.9413C155.979 56.7832 155.902 56.6363 155.779 56.5303C155.655 56.4244 155.494 56.3672 155.328 56.3705L153.475 56.4367C153.095 55.5018 152.546 54.6388 151.851 53.8881L152.777 52.3589C152.856 52.2189 152.877 52.0556 152.835 51.9016C152.794 51.7476 152.693 51.6142 152.554 51.5281L151.009 50.4373C150.88 50.3298 150.712 50.2746 150.542 50.2831C150.371 50.2917 150.21 50.3634 150.093 50.4831L148.831 51.788C147.871 51.3774 146.84 51.1357 145.79 51.0744L145.306 49.3566C145.258 49.2039 145.153 49.0738 145.009 48.9925C144.866 48.9113 144.696 48.8847 144.534 48.9183L142.638 49.1986C142.472 49.2127 142.318 49.2862 142.206 49.4043C142.095 49.5225 142.034 49.6766 142.036 49.8358L142.11 51.6096C141.133 51.9716 140.231 52.4981 139.448 53.1643L137.85 52.2774C137.705 52.2023 137.535 52.1826 137.375 52.2223C137.215 52.262 137.076 52.3582 136.987 52.4915L135.848 53.9696C135.742 54.092 135.688 54.2481 135.697 54.4068C135.706 54.5655 135.777 54.7152 135.896 54.826L137.259 56.034C136.829 56.9534 136.575 57.9392 136.508 58.9446L134.713 59.4084C134.556 59.4557 134.422 59.5576 134.338 59.6943C134.254 59.8309 134.227 59.9925 134.261 60.1475L134.548 61.9621C134.571 62.1101 134.646 62.2461 134.762 62.3466C134.877 62.4471 135.026 62.5058 135.182 62.5126L137.041 62.4413C137.411 63.375 137.952 64.2381 138.638 64.9899L137.712 66.5191C137.634 66.6586 137.615 66.8207 137.656 66.9735C137.697 67.1263 137.797 67.2588 137.935 67.3448L139.485 68.4356C139.613 68.537 139.776 68.5886 139.942 68.5801C140.108 68.5716 140.264 68.5036 140.38 68.3897L141.642 67.0848C142.602 67.4976 143.632 67.7411 144.683 67.8036L145.167 69.5213C145.209 69.681 145.314 69.8187 145.46 69.9054C145.606 69.992 145.782 70.0206 145.95 69.9852ZM142.222 59.8824C142.13 59.3112 142.217 58.7265 142.472 58.2026C142.727 57.6786 143.139 57.2388 143.655 56.939C144.172 56.6392 144.769 56.4928 145.373 56.5183C145.976 56.5438 146.558 56.7401 147.045 57.0824C147.531 57.4246 147.901 57.8974 148.107 58.4409C148.313 58.9844 148.345 59.5741 148.201 60.1353C148.056 60.6966 147.741 61.2042 147.295 61.5938C146.849 61.9834 146.292 62.2375 145.694 62.324C144.897 62.4382 144.084 62.2455 143.435 61.788C142.785 61.3304 142.351 60.6453 142.228 59.8824H142.222Z" fill="#AFC6E8"/>
<path d="M163.607 60.275L164.879 59.6938C164.991 59.6495 165.083 59.5627 165.137 59.4503C165.192 59.3379 165.206 59.2079 165.175 59.0854L164.782 57.722C165.398 57.2531 165.929 56.6698 166.35 56.0001L167.643 56.3695C167.759 56.4006 167.883 56.3838 167.988 56.3223C168.093 56.2609 168.172 56.1593 168.21 56.0381L168.721 54.6693C168.773 54.5548 168.781 54.4237 168.745 54.3026C168.709 54.1815 168.631 54.0796 168.527 54.0175L167.347 53.3494C167.468 52.553 167.455 51.7403 167.311 50.9485L168.466 50.2532C168.568 50.1865 168.643 50.0811 168.675 49.9581C168.707 49.8352 168.694 49.7039 168.639 49.5905L168.093 48.2434C168.052 48.124 167.97 48.0254 167.864 47.967C167.758 47.9086 167.636 47.8948 167.52 47.9283L166.238 48.3466C165.796 47.6912 165.247 47.1247 164.619 46.6736L164.966 45.2993C164.994 45.1763 164.977 45.0467 164.92 44.9361C164.862 44.8254 164.767 44.7418 164.654 44.7018L163.367 44.1586C163.259 44.1038 163.136 44.0946 163.022 44.1329C162.908 44.1712 162.812 44.2542 162.754 44.365L162.125 45.6198C161.377 45.4886 160.612 45.5014 159.867 45.6578L159.203 44.4248C159.14 44.316 159.041 44.2365 158.926 44.2022C158.81 44.1679 158.686 44.1815 158.58 44.2401L157.313 44.8213C157.201 44.8656 157.109 44.9524 157.054 45.0648C157 45.1772 156.986 45.3073 157.016 45.4297L157.41 46.7931C156.793 47.2633 156.261 47.8463 155.836 48.515L154.549 48.1402C154.432 48.1177 154.312 48.139 154.208 48.2004C154.105 48.2619 154.025 48.3596 153.982 48.477L153.471 49.8458C153.419 49.9603 153.411 50.0915 153.447 50.2125C153.483 50.3336 153.561 50.4355 153.665 50.4976L154.845 51.1657C154.724 51.9621 154.736 52.7748 154.881 53.5666L153.721 54.2728C153.619 54.3385 153.545 54.4429 153.512 54.565C153.48 54.687 153.493 54.8175 153.547 54.93L154.094 56.2826C154.136 56.4012 154.217 56.4991 154.323 56.5573C154.429 56.6155 154.551 56.6299 154.666 56.5976L155.949 56.1794C156.39 56.8343 156.938 57.3993 157.568 57.847L157.226 59.2158C157.205 59.3398 157.225 59.4677 157.283 59.5777C157.34 59.6877 157.432 59.7729 157.543 59.8187L158.83 60.3619C158.938 60.4168 159.061 60.426 159.175 60.3876C159.289 60.3493 159.385 60.2663 159.443 60.1555L160.072 58.9008C160.821 59.0292 161.585 59.0163 162.33 58.8627L162.994 60.0958C163.056 60.2019 163.154 60.2791 163.268 60.3123C163.381 60.3455 163.502 60.3322 163.607 60.275ZM159.08 53.181C158.908 52.7569 158.857 52.288 158.935 51.8334C159.014 51.3789 159.217 50.9592 159.519 50.6274C159.822 50.2957 160.21 50.0667 160.635 49.9696C161.06 49.8725 161.502 49.9116 161.906 50.0819C162.31 50.2522 162.658 50.5461 162.904 50.9263C163.151 51.3066 163.287 51.7562 163.293 52.2182C163.3 52.6802 163.177 53.1339 162.941 53.5219C162.705 53.9098 162.366 54.2146 161.967 54.3977C161.432 54.643 160.828 54.6526 160.287 54.4245C159.746 54.1963 159.312 53.7491 159.08 53.181Z" fill="#879DC1"/>
<path opacity="0.5" d="M87.2603 304.932C135.453 304.932 174.521 302.785 174.521 300.137C174.521 297.489 135.453 295.342 87.2603 295.342C39.0678 295.342 0 297.489 0 300.137C0 302.785 39.0678 304.932 87.2603 304.932Z" fill="white"/>
<path d="M11.7442 302.042C12.0829 302.089 12.4265 302.006 12.7095 301.808C12.9926 301.611 13.1954 301.313 13.2793 300.971L29.6099 227.601L31.5189 219.256C31.6666 218.584 31.6835 217.889 31.5689 217.211C31.4542 216.532 31.2101 215.884 30.8508 215.304C30.4916 214.723 30.0242 214.223 29.4759 213.83C28.9275 213.437 28.3091 213.161 27.6565 213.017C26.3365 212.698 24.9479 212.928 23.7913 213.658C22.6347 214.388 21.8031 215.558 21.4766 216.915C21.4421 217.073 21.4126 217.235 21.3929 217.393L20.1874 226.454L10.5584 300.468C10.5138 300.839 10.6136 301.213 10.8359 301.508C11.0582 301.803 11.3848 301.995 11.7442 302.042Z" fill="#16162B"/>
<path d="M76.8465 218.767L77.2449 220.529L78.4747 225.937L95.077 300.964C95.1608 301.308 95.3636 301.608 95.6466 301.807C95.9296 302.005 96.2731 302.089 96.6117 302.042C96.7899 302.019 96.962 301.96 97.1181 301.868C97.2742 301.776 97.4112 301.653 97.5214 301.506C97.6315 301.359 97.7126 301.191 97.76 301.011C97.8073 300.831 97.82 300.644 97.7973 300.459L87.9343 224.216L87.1128 218.001L87.0046 217.164C86.0896 216.316 82.7642 215.514 77.5106 214.794C77.1459 215.375 76.8989 216.027 76.7848 216.71C76.6706 217.393 76.6916 218.093 76.8465 218.767Z" fill="#16162B"/>
<path d="M86.9814 216.933C86.0384 216.096 82.6111 215.299 77.1963 214.584C73.8349 214.137 75.9491 213.726 71.1731 213.35C69.7434 201.774 68.0196 188.741 67.1171 183.66C64.9925 171.976 62.1942 160.424 58.7364 149.063C56.2014 140.699 50.6243 119.287 47.9727 112.699C47.8385 112.363 47.6234 112.065 47.3465 111.832C47.0697 111.599 46.7397 111.439 46.3858 111.364C45.4799 111.189 44.5489 111.189 43.6429 111.364L6.32762 114.074C5.76951 114.06 5.21157 114.109 4.66466 114.222C3.18354 114.514 1.8309 115.263 0.796232 116.363C0.455225 116.731 0.212377 117.18 0.0900957 117.667C-0.032186 118.154 -0.0299601 118.664 0.0965709 119.15C1.8508 125.686 6.62168 146.87 8.54829 154.859C11.0427 165.202 13.527 176.606 15.7224 188.654C17.5628 198.896 19.0331 208.778 20.184 217.989L20.5642 221.034L20.8634 223.425L26.1362 223.298L30.5167 223.191C50.5432 222.628 67.0208 221.603 76.9377 220.308C82.7682 219.552 86.3578 218.7 87.1082 217.796C87.2003 217.7 87.2544 217.574 87.2603 217.441C87.2547 217.341 87.2267 217.243 87.1785 217.155C87.1302 217.068 87.0629 216.992 86.9814 216.933Z" fill="#16162B"/>
<path d="M82.2217 209.041H24.2167C22.1174 209.041 20.1041 209.799 18.6197 211.148C17.1353 212.496 16.3014 214.325 16.3014 216.233C16.3014 218.14 17.1353 219.97 18.6197 221.318C20.1041 222.667 22.1174 223.425 24.2167 223.425H82.2217C84.321 223.425 86.3343 222.667 87.8187 221.318C89.3031 219.97 90.137 218.14 90.137 216.233C90.137 214.325 89.3031 212.496 87.8187 211.148C86.3343 209.799 84.321 209.041 82.2217 209.041Z" fill="#2E2E4C"/>
<path d="M93.9027 177.469L82.6614 156.41C82.4575 156.027 82.4108 155.579 82.5315 155.162L85.8939 143.514L90.1556 128.742C90.2537 128.394 90.4621 128.088 90.7493 127.87C91.0365 127.652 91.3868 127.534 91.7469 127.534C92.107 127.534 92.4573 127.652 92.7445 127.87C93.0317 128.088 93.2402 128.394 93.3382 128.742C94.9884 134.662 96.2074 140.695 96.9854 146.793C97.7782 152.855 98.1904 158.961 98.2194 165.074C98.2213 165.451 98.3502 165.817 98.5851 166.111C98.8201 166.405 99.1472 166.61 99.5134 166.694C101.512 167.145 122.341 169.046 128.536 171.207C129.491 171.539 130.529 171.539 131.484 171.207C134.481 170.159 142.195 171.232 143.539 172.134C144.883 173.037 141.311 175.293 139.702 175.338C136.125 175.439 106.003 177.174 95.5415 178.347C95.2122 178.382 94.8799 178.317 94.5878 178.161C94.2956 178.004 94.057 177.763 93.9027 177.469Z" fill="#FC9792"/>
<path d="M95.8904 146.878C92.2404 148.494 88.3432 149.412 84.3835 149.589C84.8316 147.619 85.1363 145.616 85.2951 143.598L90.8075 123.699C90.8075 123.699 94.0577 132.455 95.8904 146.878Z" fill="#688AE0"/>
<path d="M82.589 167.837C80.6379 171.499 78.4089 175.016 75.9202 178.36C72.9905 182.286 69.7416 185.979 66.2042 189.404C53.6463 191.116 41.2473 187.965 30.6849 181.168C30.9773 180.697 31.28 180.225 31.5621 179.739C39.1866 167.21 45.1189 153.787 49.214 139.799C50.3375 135.919 51.3481 131.99 53.1179 128.348C54.8877 124.706 57.545 121.342 61.1974 119.417C65.1885 117.348 69.9182 117.224 74.4274 117.15C75.4893 117.15 76.5563 117.11 77.6233 117.1L79.4803 117.076L84.5127 116.986C87.4281 118.97 89.8758 121.528 91.6945 124.493C91.6901 124.519 91.6901 124.546 91.6945 124.572C91.6945 124.572 91.6945 124.617 91.7202 124.741C91.9715 126.79 94.2082 146.115 82.589 167.837Z" fill="#688AE0"/>
<path d="M116.598 281.335C114.861 287.973 114.025 294.859 114.116 301.769C123.396 303.143 132.71 304.308 142.068 303.884C142.931 303.905 143.788 303.718 144.579 303.335C145.338 302.901 145.919 301.972 145.711 301.082C145.433 299.917 144.098 299.516 142.996 299.231C134.377 297.033 127.246 289.225 125.395 280C123.207 281.099 119.004 281.203 116.598 281.335Z" fill="#16162B"/>
<path d="M89.8238 281.335C88.0342 287.973 87.1726 294.859 87.2673 301.769C96.8287 303.143 106.426 304.308 116.069 303.884C116.958 303.905 117.841 303.718 118.656 303.335C119.439 302.901 120.037 301.972 119.817 301.082C119.531 299.917 118.16 299.516 117.025 299.231C108.144 297.033 100.796 289.225 98.8893 280C96.6293 281.099 92.3036 281.203 89.8238 281.335Z" fill="#16162B"/>
<path d="M97.8082 114.332C95.7563 116.664 94.0489 119.337 92.7485 122.254C92.4161 122.967 92.1276 123.696 91.849 124.414C91.8532 124.435 91.8532 124.457 91.849 124.479C91.3161 125.92 91.1108 127.951 90.7881 129.452C87.8456 126.17 84.6256 123.206 81.1722 120.601C79.9598 118.782 79.031 117.237 78.6301 116.557C78.7523 116.454 78.8697 116.341 78.9919 116.217C83.9315 111.485 87.1716 104.954 88.1238 97.8082C89.1651 100.961 90.41 104.027 91.849 106.983C92.1482 107.618 92.4863 108.229 92.8609 108.813C94.2123 110.873 95.8393 112.694 97.686 114.213C97.7251 114.262 97.7789 114.3 97.8082 114.332Z" fill="#FFA59D"/>
<path d="M97.8082 113.369C95.579 115.562 93.7244 118.077 92.3127 120.822C85.5282 112.902 87.5386 105.479 87.5386 105.479L92.4347 108.167C93.8996 110.108 95.6672 111.821 97.6756 113.247C97.7127 113.298 97.7711 113.334 97.8082 113.369Z" fill="#F17785"/>
<path d="M107.397 95.6298C106.424 102.591 104.785 109.441 102.504 116.086C101.845 117.994 100.893 120.124 98.9635 120.687C96.828 121.313 94.7183 119.653 93.3032 117.947C90.0408 113.998 87.6429 110.193 87.3033 105.085C86.9637 99.9775 88.6618 93.5309 91.3684 89.1781C97.3117 90.8324 101.881 92.8692 107.397 95.6298Z" fill="#FFA59D"/>
<path d="M115.069 87.2329C114.644 89.2964 114.278 91.0256 113.25 92.8698C112.221 94.7139 110.45 96.2916 108.34 96.5894C106.5 96.8506 104.671 96.1349 102.953 95.4244L96.3679 92.7392C96.3679 95.2363 94.6606 97.8954 92.5292 99.2485C92.4952 98.8064 92.287 98.3949 91.9491 98.102C91.6113 97.8092 91.1706 97.6581 90.7212 97.6812C90.2732 97.7259 89.8456 97.888 89.4829 98.1508C89.1201 98.4136 88.8355 98.7674 88.6586 99.1753C88.2988 99.9973 88.1688 100.899 88.2822 101.787C88.3061 102.516 88.4963 103.231 88.8389 103.877C89.0219 104.196 89.2814 104.466 89.5947 104.664C89.908 104.862 90.2656 104.981 90.6363 105.011C88.8177 108.02 85.9599 110.836 82.4658 110.177C82.5665 109.953 84.2738 106.265 84.3745 99.8388V99.2276C84.4063 95.5707 84.12 91.7936 85.5251 88.4188C86.0065 87.0774 86.9428 85.9407 88.1761 85.2007C89.4486 84.5476 91.1983 84.6783 92.105 85.7701C92.7625 83.8006 95.1484 82.667 97.2375 82.4946C99.3265 82.3222 101.405 82.9543 103.404 83.5812C107.296 84.7932 111.184 86.0104 115.069 87.2329Z" fill="#86472F"/>
<path d="M134.247 198.885V198.931L134.087 204.507L131.818 283.231L127.446 284.263L111.957 285.753L105.761 209.408L104.402 209.924C96.211 212.889 87.7774 215.083 79.2039 216.48C78.4344 216.609 77.67 216.728 76.9005 216.846H38.5115L38.3416 216.785C38.2167 216.748 38.0868 216.707 37.9719 216.661L37.3973 216.423L54.8404 211.482C53.6263 209.217 53.1866 206.586 52.9867 204.059C52.4015 196.383 53.3174 188.664 55.6799 181.361C67.9915 179.164 80.9827 178.648 93.9039 178.524C101.694 178.436 109.458 178.488 117.058 178.369C121.285 178.302 125.892 178.411 129.16 180.68C132.618 183.089 133.522 187.195 133.892 190.971C134.137 193.494 134.247 196.14 134.247 198.885Z" fill="#2E2E4C"/>
<path d="M81.3327 120.923C80.1273 119.321 79.2037 117.961 78.8051 117.362C78.7225 117.219 78.6544 117.119 78.6301 117.072H79.1648H80.3897L85.1582 116.986C87.9206 118.887 90.2399 121.338 91.9633 124.179C91.9592 124.204 91.9592 124.23 91.9633 124.255V124.298C92.9647 135.057 85.5033 126.499 81.3327 120.923Z" fill="#FFA59D"/>
<path d="M105.479 104.521L105.374 111.233L101.644 110.416L105.479 104.521Z" fill="#FFA59D"/>
<path d="M82.4658 167.364C80.5838 171.19 78.4337 174.864 76.0331 178.356C66.0378 165.649 64.2466 149.589 64.2466 149.589L82.4658 167.364Z" fill="#466FC1"/>
<path d="M89.9866 137.833C89.9088 136.892 88.6899 136.881 88.7547 137.833C89.1743 142.798 88.6769 147.813 87.298 152.519C87.0344 153.424 88.2274 153.814 88.491 152.914C89.9106 148.082 90.4214 142.931 89.9866 137.833Z" fill="#466FC1"/>
<path d="M82.178 135.403C82.178 135.403 87.7141 149.265 94.8877 159.476C94.8877 159.476 100.239 144.721 100.499 132.385L95.4019 123.322C95.4019 123.322 98.5369 118.646 105.69 120.167C105.69 120.167 107.877 125.933 105.92 131.757C105.92 131.757 111.092 156.473 102.081 174.491C101.652 175.329 101.057 176.074 100.33 176.682C99.6029 177.29 98.7594 177.749 97.8492 178.031C96.939 178.313 95.9805 178.413 95.0303 178.325C94.08 178.237 93.1574 177.963 92.3168 177.519C84.7938 173.618 72.0891 165.252 64.2466 150.315C64.2466 150.315 75.6135 148.338 82.178 135.403Z" fill="#FFA59D"/>
<path d="M81.1615 134.602C78.7578 138.851 75.6173 142.533 71.9208 145.436C70.5708 146.556 69.1164 147.513 67.5824 148.291C63.8417 149.99 62.9692 148.291 61.6677 145.042C61.3062 144.147 60.1204 144.92 60.4771 145.809C61.0652 147.263 61.9762 150.8 63.5284 151.407C65.0806 152.014 68.2139 149.676 69.3997 148.962C74.6894 145.715 79.1474 141.038 82.357 135.369C82.8294 134.538 81.6387 133.777 81.1615 134.602Z" fill="#466FC1"/>
<path d="M96.2302 153.902C95.3854 156.345 94.3351 158.739 93.0867 161.066C92.684 161.821 94.0599 162.477 94.4683 161.717C95.7807 159.29 96.887 156.794 97.7796 154.246C97.8359 154.08 97.8084 153.902 97.703 153.753C97.5975 153.603 97.4229 153.493 97.2174 153.448C97.012 153.402 96.7925 153.425 96.6074 153.51C96.4222 153.595 96.2866 153.736 96.2302 153.902Z" fill="#F17785"/>
<path d="M104.521 198.875V198.922L104.373 204.499L104.23 209.921L104.047 216.844L103.202 248.469L102.26 283.231L98.1859 284.262L83.77 285.753L80.954 248.448L78.5658 216.824L78.5353 216.457L78.0006 209.4C50.5029 219.032 37.5484 213.934 32.1354 209.781C31.2366 209.112 30.4869 208.259 29.9351 207.276C29.3832 206.294 29.0416 205.205 28.9324 204.081V204.055C28.3765 196.396 29.2259 188.7 31.4378 181.355C49.8103 177.847 69.7614 178.693 88.5261 178.378C90.1945 178.322 91.8647 178.373 93.5266 178.533C95.8232 178.781 98.0179 179.359 99.7849 180.69C103.003 183.099 103.859 187.205 104.195 190.982C104.424 193.484 104.521 196.131 104.521 198.875Z" fill="#3E3E63"/>
<path d="M86.1155 203.371L69.4282 211.475C68.5516 211.902 69.3192 213.216 70.191 212.794L86.8594 204.685C87.7549 204.284 86.992 202.943 86.1155 203.371Z" fill="#2E2E4C"/>
<path d="M164.858 133.195L149.477 175.491L147.388 181.233H91.3524C91.1926 181.234 91.0342 181.202 90.8865 181.141C90.7387 181.08 90.6045 180.99 90.4915 180.877C90.3785 180.763 90.289 180.628 90.2281 180.48C90.1673 180.331 90.1363 180.172 90.137 180.012V176.697C90.1363 176.536 90.1673 176.377 90.2281 176.229C90.289 176.08 90.3785 175.945 90.4915 175.832C90.6045 175.718 90.7387 175.628 90.8865 175.567C91.0342 175.506 91.1926 175.475 91.3524 175.476H143.395L158.567 133.734L159.486 131.209C159.599 130.905 159.826 130.659 160.119 130.524C160.412 130.388 160.746 130.374 161.049 130.485L164.113 131.609C164.266 131.664 164.406 131.748 164.526 131.857C164.647 131.967 164.744 132.099 164.814 132.246C164.883 132.394 164.922 132.553 164.93 132.716C164.938 132.879 164.913 133.041 164.858 133.195Z" fill="#16162B"/>
<path d="M161.096 133.977L146.531 174.521H143.836L159.066 133.288L161.096 133.977Z" fill="#D2E4FF"/>
</svg>
