<svg width="35" height="25" viewBox="0 0 35 25" fill="none" xmlns="http://www.w3.org/2000/svg">
<rect width="35" height="25" rx="5" fill="#8D98AA"/>
<path d="M11.5664 12.8867V15H10.5781V9.3125H12.7539C13.3893 9.3125 13.8932 9.47786 14.2656 9.80859C14.6406 10.1393 14.8281 10.5768 14.8281 11.1211C14.8281 11.6784 14.6445 12.112 14.2773 12.4219C13.9128 12.7318 13.401 12.8867 12.7422 12.8867H11.5664ZM11.5664 12.0938H12.7539C13.1055 12.0938 13.3737 12.0117 13.5586 11.8477C13.7435 11.681 13.8359 11.4414 13.8359 11.1289C13.8359 10.8216 13.7422 10.5768 13.5547 10.3945C13.3672 10.2096 13.1094 10.1146 12.7812 10.1094H11.5664V12.0938ZM15.6953 15V9.3125H17.375C17.8776 9.3125 18.3229 9.42448 18.7109 9.64844C19.1016 9.8724 19.4036 10.1901 19.6172 10.6016C19.8307 11.013 19.9375 11.4844 19.9375 12.0156V12.3008C19.9375 12.8398 19.8294 13.3138 19.6133 13.7227C19.3997 14.1315 19.0938 14.4466 18.6953 14.668C18.2995 14.8893 17.8451 15 17.332 15H15.6953ZM16.6836 10.1094V14.2109H17.3281C17.8464 14.2109 18.2435 14.0495 18.5195 13.7266C18.7982 13.401 18.9401 12.9349 18.9453 12.3281V12.0117C18.9453 11.3945 18.8112 10.9232 18.543 10.5977C18.2747 10.2721 17.8854 10.1094 17.375 10.1094H16.6836ZM24.1992 12.5898H21.9102V15H20.9219V9.3125H24.5352V10.1094H21.9102V11.8008H24.1992V12.5898Z" fill="white"/>
</svg>
