<svg width="35" height="25" viewBox="0 0 35 25" fill="none" xmlns="http://www.w3.org/2000/svg">
<rect width="35" height="25" rx="5" fill="#085D7A"/>
<path d="M18 7C15.2379 7 13 9.2379 13 12C13 14.7621 15.2379 17 18 17C20.7621 17 23 14.7621 23 12C23 9.2379 20.7621 7 18 7ZM20.9032 12.5645C20.9032 12.6976 20.7944 12.8065 20.6613 12.8065H18.8065V14.6613C18.8065 14.7944 18.6976 14.9032 18.5645 14.9032H17.4355C17.3024 14.9032 17.1935 14.7944 17.1935 14.6613V12.8065H15.3387C15.2056 12.8065 15.0968 12.6976 15.0968 12.5645V11.4355C15.0968 11.3024 15.2056 11.1935 15.3387 11.1935H17.1935V9.33871C17.1935 9.20565 17.3024 9.09677 17.4355 9.09677H18.5645C18.6976 9.09677 18.8065 9.20565 18.8065 9.33871V11.1935H20.6613C20.7944 11.1935 20.9032 11.3024 20.9032 11.4355V12.5645Z" fill="white"/>
</svg>
