<svg width="24" height="24" viewBox="0 0 24 24" fill="none" xmlns="http://www.w3.org/2000/svg">
<g clip-path="url(#clip0)">
<path d="M12.08 7.39124C10.8145 7.39124 9.8259 7.77529 9.11408 8.54341C8.40226 9.31153 8.04635 10.2934 8.04635 11.4891C8.03756 12.9746 8.61756 14.1521 9.78635 15.0217C9.93575 15.1376 9.98847 15.2862 9.94453 15.4673L9.64135 15.9891C9.54469 16.163 9.40188 16.2988 9.21294 16.3967C9.024 16.4945 8.62635 16.634 8.01999 16.8151C7.99362 16.8224 7.43779 16.9709 6.35249 17.2608C5.26718 17.5507 4.68938 17.7101 4.61908 17.7391C3.8809 17.9927 3.39756 18.2572 3.16908 18.5325C2.92302 18.9891 2.79999 20.1449 2.79999 21.9999H21.36C21.36 20.1449 21.237 18.9891 20.9909 18.5325C20.7624 18.2572 20.2791 17.9927 19.5409 17.7391C19.4706 17.7101 18.8928 17.5507 17.8075 17.2608C16.7222 16.9709 16.1664 16.8224 16.14 16.8151C15.5336 16.634 15.136 16.4945 14.947 16.3967C14.7581 16.2988 14.6153 16.163 14.5186 15.9891L14.2154 15.4673C14.1715 15.2862 14.2242 15.1376 14.3736 15.0217C15.5424 14.1521 16.1224 12.9746 16.1136 11.4891C16.1136 10.2934 15.7577 9.31153 15.0459 8.54341C14.3341 7.77529 13.3454 7.39124 12.08 7.39124Z" fill="white"/>
</g>
<rect x="2.5" y="2.5" width="19" height="19" rx="9.5" stroke="white"/>
<defs>
<clipPath id="clip0">
<rect width="18.56" height="16" fill="white" transform="translate(2.79999 5.99994)"/>
</clipPath>
</defs>
</svg>
