<svg width="75" height="75" viewBox="0 0 75 75" fill="none" xmlns="http://www.w3.org/2000/svg">
<rect x="0.5" y="0.5" width="74" height="74" rx="37" fill="#085D7A"/>
<g clip-path="url(#clip0_3387_5212)">
<path d="M47.1875 26.8438C47.1875 26.073 47.4937 25.3337 48.0387 24.7887C48.5837 24.2437 49.323 23.9375 50.0938 23.9375C50.8645 23.9375 51.6038 24.2437 52.1488 24.7887C52.6938 25.3337 53 26.073 53 26.8438V48.1563C53 48.927 52.6938 49.6663 52.1488 50.2113C51.6038 50.7563 50.8645 51.0625 50.0938 51.0625C49.323 51.0625 48.5837 50.7563 48.0387 50.2113C47.4937 49.6663 47.1875 48.927 47.1875 48.1563V47.7416C42.9986 45.3372 38.4881 44.1708 33.7955 43.7058L34.5802 48.9603C34.6329 49.2402 34.6232 49.5284 34.5519 49.8041C34.4805 50.0799 34.3492 50.3365 34.1673 50.5558C33.9855 50.775 33.7575 50.9514 33.4997 51.0725C33.2418 51.1936 32.9605 51.2563 32.6756 51.2563H31.6139C31.2373 51.2562 30.8688 51.1464 30.5536 50.9403C30.2384 50.7342 29.9901 50.4407 29.8391 50.0957L26.2548 43.3338C26.1243 43.3317 25.9938 43.3297 25.8634 43.328C24.8372 43.3178 23.8564 42.9038 23.1333 42.1756C22.4102 41.4474 22.003 40.4637 22 39.4375V35.5625C22.0035 34.5362 22.4099 33.5523 23.1318 32.8228C23.8537 32.0933 24.8333 31.6765 25.8595 31.6623C27.4638 31.6406 29.0676 31.5921 30.6703 31.517C36.5661 31.2186 42.5821 29.8721 47.1875 27.2564V26.8438ZM49.125 26.8438V48.1563C49.125 48.4132 49.2271 48.6596 49.4087 48.8413C49.5904 49.0229 49.8368 49.125 50.0938 49.125C50.3507 49.125 50.5971 49.0229 50.7788 48.8413C50.9604 48.6596 51.0625 48.4132 51.0625 48.1563V26.8438C51.0625 26.5868 50.9604 26.3404 50.7788 26.1587C50.5971 25.9771 50.3507 25.875 50.0938 25.875C49.8368 25.875 49.5904 25.9771 49.4087 26.1587C49.2271 26.3404 49.125 26.5868 49.125 26.8438ZM47.1875 29.4594C42.646 31.7941 37.0951 33.0283 31.6875 33.3983V41.5998C32.0363 41.6191 32.3831 41.6424 32.7279 41.6695C37.7034 42.0357 42.5956 43.111 47.1875 45.5309V29.4594ZM29.75 41.5009V33.4991C28.4639 33.5461 27.1773 33.5797 25.8905 33.5998C25.3727 33.6059 24.8781 33.8149 24.5128 34.182C24.1476 34.549 23.941 35.0447 23.9375 35.5625V39.4375C23.9375 40.5031 24.8055 41.3789 25.8866 41.3924C27.1749 41.4074 28.4629 41.4435 29.75 41.5009ZM28.4771 43.39L31.5945 49.2742L31.6139 49.3207H32.6756L32.6718 49.2936L31.8134 43.5469C30.702 43.4799 29.5898 43.4269 28.4771 43.3881V43.39Z" fill="white"/>
</g>
<rect x="0.5" y="0.5" width="74" height="74" rx="37" stroke="#085D7A"/>
<defs>
<clipPath id="clip0_3387_5212">
<rect width="31" height="31" fill="white" transform="translate(22 22)"/>
</clipPath>
</defs>
</svg>
