<svg width="25" height="24" viewBox="0 0 25 24" fill="none" xmlns="http://www.w3.org/2000/svg">
<path fill-rule="evenodd" clip-rule="evenodd" d="M12.5599 6.21737e-06C9.57825 -0.00289841 6.69295 1.01202 4.42109 2.86287C2.14923 4.71373 0.639302 7.27954 0.1619 10.1005C-0.315501 12.9215 0.270829 15.8132 1.81582 18.2574C3.3608 20.7017 5.76346 22.5387 8.59321 23.4393C9.2248 23.55 9.44817 23.1735 9.44817 22.8561C9.44817 22.5386 9.44817 21.8151 9.44817 20.8111C5.9436 21.542 5.20417 19.1944 5.20417 19.1944C4.97167 18.4668 4.47774 17.8417 3.81004 17.43C2.6778 16.6917 3.90247 16.6917 3.90247 16.6917C4.29937 16.7455 4.67831 16.8851 5.01059 17.0999C5.34288 17.3148 5.61979 17.5993 5.82036 17.932C5.99078 18.2282 6.22055 18.4892 6.49647 18.7C6.7724 18.9109 7.08905 19.0675 7.42826 19.1608C7.76747 19.254 8.12256 19.2822 8.47315 19.2436C8.82374 19.2051 9.16294 19.1005 9.47128 18.936C9.51962 18.3287 9.79278 17.7579 10.2415 17.3266C7.45326 17.0239 4.52636 15.9904 4.52636 11.4207C4.50722 10.2269 4.96777 9.07181 5.81266 8.19453C5.43636 7.15658 5.48034 6.02104 5.93589 5.01269C5.93589 5.01269 6.99112 4.68786 9.38655 6.24556C11.4435 5.70425 13.6147 5.70425 15.6717 6.24556C18.0671 4.68786 19.1146 5.01269 19.1146 5.01269C19.5765 6.01037 19.6315 7.13776 19.2687 8.17238C20.1136 9.04966 20.5741 10.2048 20.555 11.3985C20.555 16.0199 17.6204 17.0313 14.8244 17.3045C15.1242 17.5933 15.3557 17.9406 15.5032 18.3227C15.6507 18.7048 15.7108 19.1129 15.6794 19.5192C15.6794 21.1286 15.6794 22.4279 15.6794 22.8192C15.6794 23.2104 15.9027 23.5131 16.542 23.395C19.3396 22.4707 21.7062 20.6284 23.2239 18.1937C24.7416 15.7589 25.3127 12.8884 24.8363 10.0892C24.3598 7.29003 22.8665 4.74232 20.6201 2.89616C18.3738 1.05 15.5189 0.0242126 12.5599 6.21737e-06Z" fill="white"/>
</svg>
