<svg width="42" height="42" viewBox="0 0 42 42" fill="none" xmlns="http://www.w3.org/2000/svg">
<path fill-rule="evenodd" clip-rule="evenodd" d="M0.328125 0.65625C0.509343 0.65625 0.65625 0.509343 0.65625 0.328125C0.65625 0.146907 0.509343 0 0.328125 0C0.146907 0 0 0.146907 0 0.328125C0 0.509343 0.146907 0.65625 0.328125 0.65625ZM0.328125 28.2188C0.509343 28.2188 0.65625 28.0718 0.65625 27.8906C0.65625 27.7094 0.509343 27.5625 0.328125 27.5625C0.146907 27.5625 0 27.7094 0 27.8906C0 28.0718 0.146907 28.2188 0.328125 28.2188ZM28.2188 0.328125C28.2188 0.509343 28.0718 0.65625 27.8906 0.65625C27.7094 0.65625 27.5625 0.509343 27.5625 0.328125C27.5625 0.146907 27.7094 0 27.8906 0C28.0718 0 28.2188 0.146907 28.2188 0.328125ZM27.8906 28.2188C28.0718 28.2188 28.2188 28.0718 28.2188 27.8906C28.2188 27.7094 28.0718 27.5625 27.8906 27.5625C27.7094 27.5625 27.5625 27.7094 27.5625 27.8906C27.5625 28.0718 27.7094 28.2188 27.8906 28.2188ZM0.65625 14.1094C0.65625 14.2906 0.509343 14.4375 0.328125 14.4375C0.146907 14.4375 0 14.2906 0 14.1094C0 13.9282 0.146907 13.7812 0.328125 13.7812C0.509343 13.7812 0.65625 13.9282 0.65625 14.1094ZM0.328125 42C0.509343 42 0.65625 41.8531 0.65625 41.6719C0.65625 41.4907 0.509343 41.3438 0.328125 41.3438C0.146907 41.3438 0 41.4907 0 41.6719C0 41.8531 0.146907 42 0.328125 42ZM28.2188 14.1094C28.2188 14.2906 28.0718 14.4375 27.8906 14.4375C27.7094 14.4375 27.5625 14.2906 27.5625 14.1094C27.5625 13.9282 27.7094 13.7812 27.8906 13.7812C28.0718 13.7812 28.2188 13.9282 28.2188 14.1094ZM27.8906 42C28.0718 42 28.2188 41.8531 28.2188 41.6719C28.2188 41.4907 28.0718 41.3438 27.8906 41.3438C27.7094 41.3438 27.5625 41.4907 27.5625 41.6719C27.5625 41.8531 27.7094 42 27.8906 42ZM14.4375 0.328125C14.4375 0.509343 14.2906 0.65625 14.1094 0.65625C13.9282 0.65625 13.7812 0.509343 13.7812 0.328125C13.7812 0.146907 13.9282 0 14.1094 0C14.2906 0 14.4375 0.146907 14.4375 0.328125ZM14.1094 28.2188C14.2906 28.2188 14.4375 28.0718 14.4375 27.8906C14.4375 27.7094 14.2906 27.5625 14.1094 27.5625C13.9282 27.5625 13.7812 27.7094 13.7812 27.8906C13.7812 28.0718 13.9282 28.2188 14.1094 28.2188ZM42 0.328125C42 0.509343 41.8531 0.65625 41.6719 0.65625C41.4907 0.65625 41.3438 0.509343 41.3438 0.328125C41.3438 0.146907 41.4907 0 41.6719 0C41.8531 0 42 0.146907 42 0.328125ZM41.6719 28.2188C41.8531 28.2188 42 28.0718 42 27.8906C42 27.7094 41.8531 27.5625 41.6719 27.5625C41.4907 27.5625 41.3438 27.7094 41.3438 27.8906C41.3438 28.0718 41.4907 28.2188 41.6719 28.2188ZM14.4375 14.1094C14.4375 14.2906 14.2906 14.4375 14.1094 14.4375C13.9282 14.4375 13.7812 14.2906 13.7812 14.1094C13.7812 13.9282 13.9282 13.7812 14.1094 13.7812C14.2906 13.7812 14.4375 13.9282 14.4375 14.1094ZM14.1094 42C14.2906 42 14.4375 41.8531 14.4375 41.6719C14.4375 41.4907 14.2906 41.3438 14.1094 41.3438C13.9282 41.3438 13.7812 41.4907 13.7812 41.6719C13.7812 41.8531 13.9282 42 14.1094 42ZM42 14.1094C42 14.2906 41.8531 14.4375 41.6719 14.4375C41.4907 14.4375 41.3438 14.2906 41.3438 14.1094C41.3438 13.9282 41.4907 13.7812 41.6719 13.7812C41.8531 13.7812 42 13.9282 42 14.1094ZM41.6719 42C41.8531 42 42 41.8531 42 41.6719C42 41.4907 41.8531 41.3438 41.6719 41.3438C41.4907 41.3438 41.3438 41.4907 41.3438 41.6719C41.3438 41.8531 41.4907 42 41.6719 42Z" fill="white"/>
</svg>
