<svg width="100" height="169" viewBox="0 0 100 169" fill="none" xmlns="http://www.w3.org/2000/svg">
<g filter="url(#filter0_d_2688_2407)">
<path d="M16.6285 123.706V136.159C16.6274 137.964 17.1547 139.73 18.1455 141.239C19.1363 142.748 20.5472 143.934 22.2041 144.65L47.0425 155.371C48.2218 155.881 49.4946 156.138 50.7793 156.128C52.064 156.117 53.3323 155.838 54.503 155.309L77.9771 144.701C79.597 143.97 80.9713 142.787 81.9353 141.294C82.8992 139.801 83.4117 138.061 83.4112 136.284V123.717C83.4112 122.82 83.2343 121.931 82.8906 121.102C82.5469 120.272 82.0431 119.519 81.4081 118.884C80.7731 118.25 80.0192 117.747 79.1897 117.404C78.3601 117.061 77.471 116.885 76.5733 116.885H23.4664C21.6554 116.884 19.9178 117.601 18.6357 118.88C17.3535 120.159 16.6315 121.895 16.6285 123.706Z" fill="url(#paint0_linear_2688_2407)"/>
<path d="M83.513 129.469L55.3746 142.177C53.9713 142.811 52.4511 143.145 50.9112 143.159C49.3713 143.173 47.8454 142.865 46.431 142.256L16.6794 129.412C14.6957 128.556 13.0061 127.137 11.8191 125.332C10.6322 123.526 9.99981 121.412 10 119.252V35.3573C10.001 33.3543 10.5104 31.3842 11.4804 29.6317C12.4504 27.8791 13.8494 26.4015 15.5462 25.337C17.243 24.2725 19.1822 23.6561 21.1822 23.5454C23.1822 23.4348 25.1776 23.8335 26.9815 24.7043L83.2413 51.8747C85.2638 52.8523 86.9703 54.3794 88.1655 56.2814C89.3607 58.1833 89.9965 60.3833 90 62.6297V119.388C90.002 121.514 89.3913 123.595 88.2408 125.383C87.0903 127.171 85.4489 128.59 83.513 129.469Z" fill="white"/>
<path d="M48.1013 58.0502C61.9223 58.0502 73.1264 46.8461 73.1264 33.0251C73.1264 19.2041 61.9223 8 48.1013 8C34.2803 8 23.0762 19.2041 23.0762 33.0251C23.0762 46.8461 34.2803 58.0502 48.1013 58.0502Z" fill="url(#paint1_linear_2688_2407)"/>
<path d="M48.1408 47.4087C56.1063 47.4087 62.5637 40.9513 62.5637 32.9857C62.5637 25.0201 56.1063 18.5627 48.1408 18.5627C40.1752 18.5627 33.7178 25.0201 33.7178 32.9857C33.7178 40.9513 40.1752 47.4087 48.1408 47.4087Z" fill="white"/>
<g clip-path="url(#clip0_2688_2407)">
<path d="M47.9254 39.2741C51.8331 39.2741 55.001 36.1062 55.001 32.1984C55.001 28.2907 51.8331 25.1228 47.9254 25.1228C44.0176 25.1228 40.8497 28.2907 40.8497 32.1984C40.8497 36.1062 44.0176 39.2741 47.9254 39.2741Z" fill="#FFF59D"/>
<path d="M52.5245 32.1985C52.5245 29.4744 50.1896 27.3163 47.3947 27.6347C45.272 27.8824 43.5739 29.5805 43.3616 31.7032C43.1847 33.3306 43.8569 34.7811 44.989 35.701C45.4843 36.1255 45.8027 36.7269 45.8027 37.3991V37.5053H50.0481V37.4699C50.0481 36.8331 50.3311 36.1963 50.8264 35.7717C51.8524 34.9226 52.5245 33.649 52.5245 32.1985Z" fill="#FBC02D"/>
<path d="M50.2604 31.5617L49.1991 30.8541C49.0929 30.7833 48.9161 30.7833 48.8099 30.8541L47.9255 31.4201L47.0764 30.8541C46.9703 30.7833 46.7934 30.7833 46.6872 30.8541L45.6259 31.5617C45.5551 31.6324 45.4844 31.7032 45.4844 31.8093C45.4844 31.9154 45.4844 32.0216 45.5551 32.0923L46.8995 33.7551V37.5052H47.6071V33.6136C47.6071 33.5428 47.5717 33.4721 47.5363 33.4013L46.3688 31.9508L46.8995 31.597L47.7486 32.1631C47.8547 32.2338 48.0316 32.2338 48.1377 32.1631L48.9868 31.597L49.5175 31.9508L48.35 33.4013C48.3146 33.4721 48.2792 33.5428 48.2792 33.6136V37.5052H48.9868V33.7551L50.3312 32.0923C50.4019 32.0216 50.4373 31.9154 50.4019 31.8093C50.3666 31.7032 50.3312 31.597 50.2604 31.5617Z" fill="#FFF59D"/>
<path d="M47.9252 41.0429C48.5114 41.0429 48.9866 40.5677 48.9866 39.9815C48.9866 39.3953 48.5114 38.9202 47.9252 38.9202C47.3391 38.9202 46.8639 39.3953 46.8639 39.9815C46.8639 40.5677 47.3391 41.0429 47.9252 41.0429Z" fill="#5C6BC0"/>
<path d="M48.6329 40.3354H47.2177C46.4394 40.3354 45.8026 39.6986 45.8026 38.9203V37.1514H50.048V38.9203C50.048 39.6986 49.4112 40.3354 48.6329 40.3354Z" fill="#9FA8DA"/>
<path d="M50.0477 38.9207L45.9438 39.4867C46.05 39.7343 46.2623 39.982 46.5099 40.1235L49.8354 39.6636C49.977 39.4513 50.0477 39.2037 50.0477 38.9207Z" fill="#5C6BC0"/>
<path d="M45.8026 38.1068V38.8144L50.048 38.2129V37.5054L45.8026 38.1068Z" fill="#5C6BC0"/>
</g>
</g>
<defs>
<filter id="filter0_d_2688_2407" x="0" y="0" width="100" height="168.128" filterUnits="userSpaceOnUse" color-interpolation-filters="sRGB">
<feFlood flood-opacity="0" result="BackgroundImageFix"/>
<feColorMatrix in="SourceAlpha" type="matrix" values="0 0 0 0 0 0 0 0 0 0 0 0 0 0 0 0 0 0 127 0" result="hardAlpha"/>
<feOffset dy="2"/>
<feGaussianBlur stdDeviation="5"/>
<feComposite in2="hardAlpha" operator="out"/>
<feColorMatrix type="matrix" values="0 0 0 0 0 0 0 0 0 0 0 0 0 0 0 0 0 0 0.2 0"/>
<feBlend mode="normal" in2="BackgroundImageFix" result="effect1_dropShadow_2688_2407"/>
<feBlend mode="normal" in="SourceGraphic" in2="effect1_dropShadow_2688_2407" result="shape"/>
</filter>
<linearGradient id="paint0_linear_2688_2407" x1="16.6285" y1="136.493" x2="83.4112" y2="136.493" gradientUnits="userSpaceOnUse">
<stop offset="0.01" stop-color="#FC9C10"/>
<stop offset="1" stop-color="#FF5D15"/>
</linearGradient>
<linearGradient id="paint1_linear_2688_2407" x1="-1248.8" y1="8324.21" x2="-1248.45" y2="12132.6" gradientUnits="userSpaceOnUse">
<stop offset="0.01" stop-color="#FC9C10"/>
<stop offset="1" stop-color="#FF5D15"/>
</linearGradient>
<clipPath id="clip0_2688_2407">
<rect width="16.9815" height="16.9815" fill="white" transform="translate(39.4346 24.4153)"/>
</clipPath>
</defs>
</svg>
