<svg width="375" height="272" viewBox="0 0 375 272" fill="none" xmlns="http://www.w3.org/2000/svg">
<g filter="url(#filter0_d)">
<path d="M346.428 194.216H346.327L346.623 189.112H320.525L321.785 210.762C321.898 212.716 322.759 214.553 324.19 215.897C325.621 217.24 327.515 217.989 329.483 217.989H337.672C339.64 217.989 341.534 217.241 342.965 215.897C344.397 214.554 345.258 212.717 345.372 210.762L345.662 205.766C345.916 205.789 346.174 205.804 346.434 205.804C350.245 205.804 353.345 203.204 353.345 200.008C353.345 196.812 350.239 194.216 346.428 194.216ZM346.428 203.406C346.217 203.405 346.007 203.391 345.798 203.366L346.189 196.624C346.268 196.624 346.348 196.624 346.43 196.624C348.91 196.624 350.926 198.149 350.926 200.021C350.926 201.892 348.908 203.408 346.428 203.408V203.406Z" fill="#EE6F57"/>
<path d="M336.217 187.155C333.657 186.825 331.242 185.348 329.596 183.243C328.753 182.174 328.129 180.951 327.757 179.644C327.652 179.318 327.593 178.982 327.519 178.648C327.446 178.314 327.406 177.973 327.389 177.633C327.325 176.956 327.325 176.274 327.389 175.597C327.521 174.243 327.898 172.924 328.5 171.703C328.801 171.093 329.161 170.513 329.575 169.972C329.98 169.44 330.434 168.946 330.931 168.497C331.391 168.08 331.834 167.706 332.212 167.336C332.398 167.164 332.573 166.982 332.737 166.789C332.884 166.617 333.015 166.433 333.128 166.238C333.353 165.857 333.478 165.426 333.493 164.984C333.526 164.57 333.396 164.16 333.13 163.84L333.787 162.887C334.146 163.074 334.454 163.343 334.686 163.673C334.908 164.001 335.068 164.366 335.16 164.75C335.329 165.498 335.293 166.277 335.055 167.006C334.537 168.481 333.548 169.446 332.809 170.306C332.459 170.699 332.14 171.118 331.855 171.559C331.708 171.768 331.591 172 331.461 172.219C331.33 172.439 331.223 172.675 331.129 172.915C330.716 173.858 330.45 174.858 330.339 175.881C330.116 177.939 330.582 180.014 331.664 181.783C332.826 183.641 334.512 185.117 336.513 186.027L336.217 187.155Z" fill="white"/>
<path d="M336.998 181.079C338.001 180.216 338.861 179.2 339.545 178.069C340.187 177.01 340.628 175.843 340.845 174.625C341.04 173.408 341.02 172.166 340.788 170.956C340.533 169.661 340.091 168.409 339.476 167.24L340.315 166.446C341.672 167.307 342.695 168.681 343.291 170.206C343.902 171.774 344.064 173.479 343.759 175.133C343.45 176.783 342.698 178.319 341.584 179.579C340.515 180.814 339.096 181.697 337.512 182.113L336.998 181.079Z" fill="white"/>
<path d="M130.981 223.148C97.6527 216.727 74.1119 197.412 63.1846 167.491C45.8046 119.896 64.4277 49.7357 114.256 34.3198C133.994 28.2148 158.221 39.1466 178.495 38.9983C206.968 38.7894 232.575 21.4081 260.861 23.6241C297.685 26.5106 324.605 60.2539 331.509 94.4922C333.89 106.27 334.144 118.375 332.258 130.241C330.196 143.096 325.997 155.692 319.622 166.831C314.131 176.428 301.433 189.133 290.632 191.685L130.981 223.148Z" stroke="#FBC343" stroke-width="3.82" stroke-miterlimit="10"/>
<path d="M220.192 217.832C253.13 209.743 278.298 185.313 286.966 157.359C300.768 112.893 276.738 50.3331 225.587 39.675C215.197 37.5112 204.247 38.0584 193.706 39.2698C176.487 41.2498 158.824 43.7373 141.471 43.1859C124.595 42.6512 108.229 37.7159 91.2231 38.096C35.0137 39.3491 1.35196 92.7482 14.251 141.638C17.2999 153.192 22.4717 164.366 29.716 174.068C35.9545 182.422 49.664 193.126 60.6879 194.724L220.192 217.832Z" stroke="#FBC343" stroke-width="3.75" stroke-miterlimit="10"/>
<path d="M302.861 164.494C294.028 189.92 283.476 215.038 246.776 224.729L88.1533 223.058C52.4002 206.265 32.8679 173.099 29.6174 137.325C28.545 125.344 29.2596 113.271 31.7382 101.497C32.3891 98.3645 33.1661 95.2504 34.069 92.1551C42.2582 64.053 59.6087 37.5592 85.4089 22.6153C101.997 13.0078 123.237 16.1824 140.843 21.1115C156.718 25.554 172.225 31.778 188.614 33.6431C201.67 35.1323 214.951 33.8102 228.048 34.3219C232.732 34.4683 237.399 34.9569 242.012 35.7839C261.798 39.4807 279.335 51.5465 291.373 67.6809C295.52 73.2216 298.995 79.2296 301.725 85.5802C312.323 110.347 311.681 139.061 302.861 164.494Z" fill="#FFE066"/>
<path d="M19.5352 205.698C18.8472 196.971 23.5355 187.56 31.758 181.138C39.2525 175.295 48.4991 172.307 57.3757 169.957C106.695 156.896 158.782 158.455 209.167 159.961C254.188 161.309 300.745 162.701 345.314 153.701C351.66 152.42 358.329 150.859 364.005 147.186C370.102 143.24 373.962 137.056 374.078 131.052C374.298 119.784 362.605 112.075 355.617 108.477C329.077 94.8126 296.413 89.6728 252.85 92.2959C219.819 94.3125 187.066 99.7987 155.09 108.671C147.889 110.668 140.559 112.878 133.477 115.013C108.123 122.661 81.9092 130.566 55.1715 130.566H54.7715C47.513 130.545 38.1944 129.012 35.0182 121.827C32.7761 116.756 34.6622 110.975 36.6383 107.027C43.2388 93.8151 55.7356 86.1148 65.0562 81.9849C75.5228 77.3438 86.8995 74.8188 97.8982 72.3855L101.814 71.5132C126.468 65.9672 150.835 59.1128 174.819 50.9768C186.148 47.1328 191.96 42.1328 192.592 35.6929C193.152 29.9791 189.134 24.977 184.902 22.5458C179.833 19.641 173.843 19.2633 169.193 19.2612H169.127C155.086 19.2611 141.257 22.8295 128.834 29.6578C124.256 32.1828 119.834 35.1899 115.565 38.0969C109.911 41.945 104.063 45.9246 97.7642 48.8524C85.5595 54.5035 71.1385 56.5883 54.8555 55.0398C42.2907 53.8441 32.7141 50.6262 25.5776 45.2004C21.2714 41.9262 17.6771 37.7046 14.2009 33.6185C9.97664 28.6561 5.60036 23.5246 0 20.1919L0.372023 19.5116C6.09239 22.909 10.5027 28.0905 14.7729 33.101C18.2212 37.1536 21.7894 41.344 26.0297 44.5786C33.0541 49.9188 42.5087 53.0886 54.9335 54.2698C71.0745 55.8057 85.3835 53.7439 97.4562 48.1387C103.705 45.238 109.527 41.2751 115.157 37.4437C119.444 34.5221 123.876 31.5109 128.484 28.967C141.015 22.0806 154.966 18.4814 169.129 18.4807H169.195C173.935 18.4807 180.047 18.871 185.266 21.8614C189.714 24.4094 193.934 29.6974 193.34 35.7659C192.674 42.546 186.694 47.7631 175.053 51.7155C151.044 59.8601 126.652 66.7208 101.972 72.2708C100.668 72.5643 99.3623 72.8558 98.0543 73.1451C87.0796 75.5659 75.7388 78.0826 65.3382 82.6945C56.1376 86.7784 43.7948 94.3807 37.2924 107.382C35.3943 111.18 33.5761 116.712 35.6923 121.493C38.6925 128.304 47.725 129.757 54.7655 129.777H55.1655C81.7992 129.777 107.969 121.887 133.264 114.256C140.351 112.119 147.677 109.909 154.894 107.91C186.919 99.0235 219.721 93.5289 252.802 91.5092C296.509 88.8756 329.283 94.0426 355.945 107.768C363.093 111.449 375.052 119.368 374.824 131.063C374.702 137.323 370.706 143.759 364.395 147.845C358.613 151.589 351.866 153.167 345.454 154.463C300.803 163.486 254.204 162.092 209.141 160.744C158.816 159.239 106.775 157.682 57.5557 170.717C48.7551 173.046 39.5925 175.999 32.2041 181.764C24.1795 188.025 19.6033 197.174 20.2793 205.636L19.5352 205.698Z" fill="white"/>
<path d="M229.999 203.3C240.708 206.029 255.423 208.479 250.734 217.586L224.052 217.561L229.999 203.3Z" fill="#E28B6D"/>
<path d="M119.226 140.554H93.4174C84.6049 140.554 77.4611 147.66 77.4611 156.425V208.855C77.4611 217.621 84.6049 224.727 93.4174 224.727H119.226C128.038 224.727 135.182 217.621 135.182 208.855V156.425C135.182 147.66 128.038 140.554 119.226 140.554Z" fill="#102048"/>
<path opacity="0.8" d="M90.314 148.313C89.3439 148.566 88.6909 149.447 88.252 150.345C87.8225 151.28 87.5047 152.261 87.305 153.269C86.8885 155.301 86.6344 157.362 86.5449 159.433C86.3545 163.592 86.3973 167.758 86.673 171.912C86.9124 176.071 87.2882 180.221 87.8006 184.362C88.0441 186.433 88.3241 188.498 88.6405 190.559C88.9491 192.621 89.2935 194.678 89.7156 196.721L89.4153 196.787C88.9135 194.755 88.483 192.706 88.0987 190.649C87.7145 188.592 87.4037 186.522 87.1139 184.45C86.554 180.302 86.1466 176.137 85.8919 171.956C85.6819 167.779 85.5706 163.581 85.8772 159.391C86.0071 157.289 86.3098 155.201 86.7822 153.148C87.0273 152.113 87.3938 151.11 87.8741 150.16C88.1227 149.678 88.4395 149.234 88.8148 148.842C89.2006 148.437 89.6957 148.152 90.2405 148.021L90.314 148.313Z" fill="white"/>
<path d="M100.187 153.861C100.187 153.861 101.821 186.804 112.101 223.045H140.195L100.187 153.861Z" fill="#955007"/>
<path d="M113.074 137.043C106.016 133.223 104.08 123.758 109.235 117.619C109.731 117.026 110.285 116.429 110.892 115.823C118.768 108.02 113.861 100.213 112.759 82.2593C111.656 64.3057 131.749 59.4247 131.787 59.4142C132.734 59.1845 134.569 56.4902 135.344 55.826C144.411 47.998 157.417 48.5765 167.358 54.529C172.086 57.3612 176.844 61.7221 179.404 66.7264C183.463 74.6631 184.198 85.1186 191.033 91.2987C200.778 100.108 211.586 107.59 211.149 121.792C210.995 126.84 209.725 132.173 206.632 136.218C203.936 139.744 199.831 142.11 196.133 144.391C190.109 148.098 183.744 151.377 177.025 153.581C170.516 155.713 163.931 157.628 157.331 159.456L155.458 159.972L113.074 137.043Z" fill="#6F3428"/>
<path d="M159.013 129.284C182.608 121.226 195.423 147.495 213.045 198.749L229.999 203.3L228.029 221.552L221.843 222.834L171.33 223.043L159.013 129.284Z" fill="#E67700"/>
<path d="M389 217H-24V272H389V217Z" fill="#085D7A"/>
<path d="M125.773 125.466L178.539 138.601L200.706 204.674L126.649 206.919L121.75 158.065L125.773 125.466Z" fill="#E67700"/>
<path opacity="0.3" d="M127.634 153.861C140.598 166.843 137.732 185.864 148.806 187.752C156.138 189.005 176.973 191.963 186.913 196.084C188.925 196.919 194.472 201.021 193.613 204.663C193.059 207.011 185.664 205.131 185.664 205.131L130.296 199.603L118.571 172.618L127.634 153.861Z" fill="#1F3C88"/>
<path d="M173.178 201.445C173.554 200.854 181.493 199.287 182.39 199.411C185.342 199.812 186.955 202.111 187.667 203.872L175.921 210.025L173.178 201.445Z" fill="#102048"/>
<path d="M181.966 153.802L183.329 156.891C183.778 157.935 184.196 158.98 184.632 160.007C185.472 162.096 186.277 164.199 187.033 166.319C188.567 170.55 189.926 174.845 191.201 179.162C192.475 183.479 193.578 187.844 194.573 192.232C195.054 194.429 195.518 196.633 195.929 198.845C196.341 201.056 196.679 203.283 196.979 205.514L196.687 205.555C196.318 203.341 195.898 201.138 195.428 198.945C194.974 196.748 194.468 194.559 193.958 192.378C192.912 188.015 191.762 183.677 190.508 179.366C189.275 175.051 187.904 170.776 186.457 166.528C185.743 164.4 184.966 162.292 184.183 160.191C183.782 159.147 183.396 158.088 182.982 157.044L181.722 153.911L181.966 153.802Z" fill="#102048"/>
<path d="M224.142 212.594C224.142 212.594 221.923 215.205 214.914 212.661C211.613 213.043 205.465 212.751 193.79 210.856C193.79 210.856 198.031 213.805 207.623 214.311C207.623 214.311 207.203 217.122 202.164 216.997C196.074 216.844 195.377 216.479 189.834 216.708C188.7 216.756 186.233 216.708 183.56 216.621C178.898 216.468 173.602 216.222 173.602 216.222L168.983 208.009L178.201 203.623C181.029 202.523 182.442 202.143 183.818 201.952C189.771 201.117 193.529 200.445 197.796 201.176C202.531 201.973 217.013 206.75 224.142 212.594Z" fill="#F9B384"/>
<path d="M183.803 216.479L183.545 216.621C178.883 216.468 173.588 216.222 173.588 216.222L168.968 208.009L178.186 203.623C181.015 202.523 182.428 202.143 183.803 201.952C180.422 203.316 177.649 206.919 183.803 216.479Z" fill="#E28B6D"/>
<path d="M147.523 129.196C135.529 126.753 106.302 124.718 98.1359 139.769C91.4166 152.16 108.265 193.654 115.564 208.247C118.569 214.254 127.296 217.228 130.683 217.249L178.871 216.974C175.629 216.226 171.473 198.922 182.384 199.413L142.488 193.882C141.719 193.777 140.981 193.51 140.324 193.1C139.667 192.689 139.105 192.143 138.677 191.499C138.099 190.632 137.429 189.536 137.087 188.289L125.761 147.018L147.523 129.196Z" fill="#E67700"/>
<path d="M254.146 217.247L207.132 217.218V212.807H254.419L254.146 217.247Z" fill="white"/>
<path d="M293.868 217.247L237.155 217.228L257.842 157.062L314.555 157.079L293.868 217.247Z" fill="#102048"/>
<path d="M280.423 190.367C278.684 193.128 275.436 194.26 272.958 193.049C272.813 192.98 272.673 192.902 272.538 192.815C270.019 191.248 269.462 187.604 271.299 184.684C273.137 181.764 276.669 180.663 279.195 182.236C279.936 182.702 280.535 183.361 280.927 184.141C281.819 185.933 281.704 188.331 280.423 190.367Z" fill="white"/>
<path d="M280.423 190.367C278.684 193.128 274.413 195.135 271.419 191.852C277.914 192.437 280.1 188.205 279.978 182.859C282.2 185.302 281.704 188.331 280.423 190.367Z" fill="#708CD5"/>
<path d="M197.815 201.013C200.226 201.368 202.558 202.036 204.872 202.75C207.186 203.465 209.456 204.313 211.69 205.246C213.935 206.164 216.124 207.21 218.248 208.379C220.363 209.561 222.422 210.885 224.241 212.485L224.046 212.721C223.082 212.011 222.089 211.343 221.06 210.731C220.031 210.119 218.987 209.528 217.923 208.981C215.793 207.88 213.616 206.867 211.388 205.971C209.187 205.006 206.928 204.187 204.669 203.385C203.535 202.988 202.393 202.615 201.242 202.266C200.095 201.909 198.932 201.581 197.769 201.324L197.815 201.013Z" fill="#6F3428"/>
<path d="M196.881 212.147L199.417 212.867C200.257 213.093 201.112 213.285 201.966 213.461C202.821 213.636 203.68 213.77 204.545 213.891C205.41 214.012 206.277 214.1 207.149 214.177L207.438 214.204L207.461 214.455C207.492 214.768 207.46 215.085 207.367 215.386C207.275 215.693 207.099 215.969 206.859 216.182C206.62 216.379 206.337 216.516 206.034 216.581C205.891 216.609 205.746 216.629 205.601 216.642H205.181V216.335L205.561 216.278C205.682 216.251 205.801 216.217 205.918 216.178C206.137 216.103 206.333 215.976 206.491 215.808C206.641 215.647 206.744 215.449 206.789 215.234C206.837 215.017 206.842 214.793 206.806 214.574L207.119 214.852C205.332 214.82 203.553 214.604 201.811 214.206C200.941 214.005 200.084 213.754 199.243 213.454C198.405 213.159 197.583 212.821 196.78 212.443L196.881 212.147Z" fill="#6F3428"/>
<path d="M194.733 206.067C196.771 206.326 198.823 206.524 200.874 206.733C202.926 206.942 204.977 207.151 207.029 207.479C209.08 207.807 211.098 208.172 213.129 208.538C215.159 208.903 217.186 209.277 219.208 209.685L219.686 209.781L219.477 210.223C219.34 210.601 219.165 210.965 218.954 211.307C218.827 211.491 218.682 211.66 218.519 211.813C218.349 211.947 218.17 212.072 217.986 212.187C217.242 212.619 216.447 212.765 215.676 212.916C214.109 213.17 212.551 213.16 211.004 213.11C210.229 213.081 209.456 213.047 208.694 212.978C207.932 212.909 207.153 212.868 206.384 212.769C204.849 212.611 203.323 212.393 201.798 212.174L201.836 211.869C203.371 211.994 204.898 212.166 206.43 212.256C207.197 212.314 207.961 212.36 208.728 212.393C209.494 212.427 210.258 212.456 211.023 212.464C212.54 212.503 214.058 212.415 215.56 212.201C216.283 212.057 217.03 211.901 217.618 211.543C217.767 211.46 217.889 211.349 218.038 211.255C218.153 211.143 218.256 211.02 218.347 210.888C218.531 210.573 218.683 210.242 218.802 209.898L219.078 210.436C215.029 209.676 210.985 208.866 206.93 208.166C204.914 207.801 202.867 207.556 200.824 207.283C198.781 207.009 196.736 206.742 194.701 206.368L194.733 206.067Z" fill="#6F3428"/>
<path d="M0 216.946L374.827 216.945" stroke="#102048" stroke-width="5" stroke-miterlimit="10"/>
<path d="M141.623 144.832C143.355 146.007 145.291 146.857 147.332 147.338C149.356 147.825 151.458 147.905 153.514 147.574C155.566 147.263 157.511 146.461 159.183 145.237C160.857 143.989 162.206 142.36 163.114 140.485L163.395 140.606C163.185 141.093 162.952 141.582 162.721 142.068C162.49 142.555 162.148 142.981 161.86 143.441C161.573 143.9 161.159 144.276 160.81 144.694C160.462 145.111 160.004 145.423 159.601 145.79C157.864 147.132 155.813 148.013 153.64 148.351C151.488 148.679 149.292 148.557 147.19 147.992C145.089 147.427 143.13 146.431 141.438 145.07L141.623 144.832Z" fill="#102048"/>
<path d="M127.777 153.821L130.408 162.716L132.988 171.624L135.552 180.538L136.825 184.997L137.454 187.228C137.636 187.96 137.867 188.679 138.147 189.379C138.725 190.726 139.892 191.723 141.213 192.41C142.585 193.067 144.036 193.548 145.53 193.84C147.036 194.162 148.558 194.379 150.104 194.578L154.723 195.204L163.962 196.474L173.189 197.796L173.151 198.086L163.893 196.994L154.641 195.852L150.022 195.267C148.485 195.079 146.929 194.864 145.402 194.542C143.844 194.243 142.33 193.748 140.898 193.068C139.483 192.345 138.133 191.221 137.49 189.688C137.399 189.505 137.324 189.314 137.265 189.118C137.2 188.926 137.127 188.73 137.081 188.546L136.768 187.426L136.138 185.194L134.878 180.728L132.386 171.804L129.918 162.862L127.493 153.909L127.777 153.821Z" fill="#102048"/>
<path d="M157.747 110.535L160.109 130.767C160.812 136.79 154.44 141.836 147.962 140.166C144.264 139.211 140.402 136.665 136.413 132.839C135.607 132.074 135.1 131.05 134.983 129.948L132.463 105.564L157.747 110.535Z" fill="#F9B384"/>
<path d="M158.068 113.285L159.353 124.303C154.127 125.119 146.754 122.195 139.283 112.327L158.068 113.285Z" fill="#3C1C16"/>
<path d="M170.959 95.9668C170.656 99.6364 170.075 103.469 169.04 106.913C167.29 112.701 164.239 117.371 159.013 118.235C143.626 120.779 132.476 105.564 132.476 105.564L130.678 84.8596L139.966 68.8798L160.754 68.2803L170.894 80.2125C171.336 85.4539 171.357 90.7219 170.959 95.9668Z" fill="#F9B384"/>
<path d="M130.189 92.7273C138.447 92.1133 140.35 85.1708 140.915 76.171C140.915 76.171 163.288 70.6592 171.229 86.4782L177.254 87.1278L159.013 63.0421L130.666 66.4069L125.12 84.7092L130.189 92.7273Z" fill="#6F3428"/>
<path d="M134.559 90.0289C134.076 89.5018 133.475 89.0968 132.804 88.8472C132.132 88.5977 131.411 88.5109 130.699 88.594C125.213 89.2561 124.259 96.4826 125.513 99.5591C127.39 104.154 132.474 105.562 132.474 105.562L136.843 100.967C137.188 96.1819 136.646 92.3159 134.559 90.0289Z" fill="#F9B384"/>
<path opacity="0.15" d="M134.649 111.115C137.664 119.643 146.941 143.727 131.789 143.121C124.486 142.831 118.069 128.741 107.66 131.4C108.917 130.804 110.218 130.304 111.551 129.904L134.649 111.115Z" fill="#3C1C16"/>
<path d="M132.474 105.562C135.397 111.084 143.573 138.403 129.645 136.826C122.926 136.064 121.286 128.022 111.551 129.904L132.474 105.562Z" fill="#6F3428"/>
<path d="M132.953 95.0331C132.966 94.4209 132.792 93.8191 132.453 93.308C132.139 92.8181 131.692 92.4264 131.164 92.178C130.665 91.9438 130.094 91.9138 129.574 92.0945C129.043 92.2804 128.57 92.696 128.104 93.1764L127.766 92.9675C128.029 92.2521 128.542 91.6546 129.211 91.2841C129.389 91.1847 129.582 91.1142 129.782 91.0753C129.981 91.0188 130.188 90.9941 130.395 91.0022L130.706 91.0126L131.006 91.0753C131.206 91.1128 131.399 91.1789 131.579 91.2716C132.294 91.6092 132.869 92.1837 133.205 92.8965C133.375 93.2381 133.475 93.6105 133.497 93.9913C133.52 94.3721 133.464 94.7535 133.335 95.1125L132.953 95.0331Z" fill="#3C1C16"/>
<path d="M162.385 91.9483C162.436 93.356 163.259 94.4692 164.227 94.4358C165.195 94.4024 165.938 93.2349 165.888 91.8272C165.837 90.4195 165.014 89.3062 164.046 89.3396C163.078 89.3731 162.343 90.5427 162.385 91.9483Z" fill="#3C1C16"/>
<path d="M147.136 92.4809C147.185 93.8886 148.01 95.0018 148.978 94.9663C149.946 94.9308 150.687 93.7654 150.639 92.3577C150.591 90.95 149.765 89.8388 148.797 89.8722C147.829 89.9057 147.086 91.0732 147.136 92.4809Z" fill="#3C1C16"/>
<path d="M162.198 106.274C161.527 107.161 160.667 107.889 159.679 108.404C158.595 108.899 157.368 108.985 156.224 108.649C155.149 108.316 154.15 107.775 153.285 107.057C152.439 106.389 151.675 105.624 151.011 104.776L151.328 104.449C152.199 105.048 153.008 105.689 153.881 106.228C154.755 106.767 155.618 107.272 156.535 107.538C157.432 107.81 158.393 107.793 159.28 107.49C160.174 107.16 161.018 106.568 161.862 105.948L162.198 106.274Z" fill="#3C1C16"/>
<path d="M167.557 87.6019C166.94 87.1461 166.284 86.7456 165.596 86.4052C164.999 86.1226 164.338 86.0023 163.679 86.0564C162.991 86.1464 162.321 86.343 161.694 86.6391C161.01 86.9357 160.338 87.3346 159.567 87.6834L159.357 87.4641C159.778 86.7165 160.35 86.0636 161.037 85.5468C161.769 84.9829 162.648 84.6381 163.57 84.5526C164.535 84.4789 165.492 84.7698 166.251 85.3671C166.949 85.8992 167.486 86.6115 167.805 87.4265L167.557 87.6019Z" fill="#3C1C16"/>
<path d="M152.273 88.1345C151.602 87.6396 150.858 87.2513 150.068 86.9837C149.338 86.752 148.568 86.6745 147.806 86.7561C147.023 86.85 146.256 87.0539 145.53 87.3618C144.77 87.675 144.025 88.0823 143.193 88.475L142.983 88.2661C143.467 87.4571 144.122 86.7622 144.902 86.2297C145.721 85.6674 146.671 85.3236 147.661 85.2314C148.678 85.1322 149.7 85.3512 150.584 85.858C151.439 86.3281 152.117 87.0618 152.516 87.9486L152.273 88.1345Z" fill="#3C1C16"/>
<path opacity="0.5" d="M137.498 102.212C137.537 103.311 137.903 104.375 138.55 105.268C139.196 106.161 140.095 106.843 141.131 107.228C142.167 107.613 143.295 107.684 144.372 107.432C145.449 107.179 146.426 106.615 147.181 105.81C147.935 105.005 148.432 103.996 148.61 102.909C148.788 101.823 148.638 100.709 148.179 99.7079C147.72 98.7066 146.973 97.8632 146.032 97.2842C145.091 96.7053 143.998 96.4169 142.893 96.4555C142.159 96.4811 141.437 96.6503 140.768 96.9534C140.1 97.2566 139.498 97.6877 138.997 98.2222C138.496 98.7567 138.106 99.3842 137.849 100.069C137.592 100.753 137.473 101.481 137.498 102.212Z" fill="#FC8879"/>
<path opacity="0.5" d="M170.959 95.9668C170.656 99.6364 170.074 103.469 169.039 106.913C167.73 106.588 166.583 105.804 165.809 104.705C165.035 103.606 164.686 102.265 164.827 100.93C164.967 99.5957 165.588 98.3564 166.574 97.4405C167.56 96.5247 168.846 95.9939 170.194 95.9459C170.449 95.9382 170.704 95.9452 170.959 95.9668Z" fill="#FC8879"/>
<path opacity="0.5" d="M156.086 90.8497C156.091 90.7945 156.116 90.7429 156.155 90.7037C156.194 90.6645 156.246 90.6402 156.302 90.635C156.357 90.6298 156.413 90.644 156.459 90.6752C156.505 90.7064 156.539 90.7526 156.554 90.8058C157.814 94.8661 161.869 97.8319 161.218 99.0245C160.76 99.8599 159.042 100.812 157.837 101.399C157.688 101.471 157.525 101.509 157.359 101.508C157.194 101.507 157.03 101.469 156.882 101.395C156.734 101.322 156.605 101.215 156.505 101.084C156.404 100.953 156.336 100.801 156.304 100.639C155.714 97.6251 155.748 94.3168 156.086 90.8497Z" fill="#FC8879"/>
<path d="M156.947 90.4382C157.249 91.6099 157.752 92.7208 158.435 93.7215C159.101 94.7366 159.88 95.6806 160.668 96.6727C160.867 96.9212 161.058 97.1802 161.247 97.4559C161.46 97.7504 161.635 98.0704 161.768 98.4083C161.862 98.648 161.888 98.909 161.841 99.1623C161.778 99.4043 161.656 99.6268 161.484 99.8098C161.243 100.074 160.97 100.307 160.67 100.503C159.574 101.2 158.381 101.733 157.129 102.084L156.955 101.667C157.491 101.349 158.041 101.04 158.559 100.712C159.08 100.401 159.581 100.059 160.059 99.6865C160.271 99.5173 160.467 99.3285 160.644 99.1226C160.684 99.0728 160.717 99.018 160.743 98.9597C160.736 98.9019 160.719 98.8456 160.695 98.7926C160.531 98.3749 160.111 97.8653 159.748 97.3828C158.988 96.3991 158.188 95.3757 157.577 94.2269C156.92 93.0866 156.548 91.8057 156.493 90.4925L156.947 90.4382Z" fill="#3C1C16"/>
<path d="M127.585 107.078C127.245 107.86 127.1 108.713 127.165 109.564C127.236 110.418 127.439 111.256 127.766 112.049C128.442 113.634 129.345 115.182 130.137 116.788C130.928 118.394 131.653 120.08 131.976 121.901C132.134 122.816 132.179 123.748 132.11 124.674C132.061 125.143 131.984 125.608 131.879 126.068C131.757 126.532 131.584 126.981 131.363 127.408C130.924 128.286 130.253 129.028 129.421 129.553C128.567 130.087 127.559 130.322 126.556 130.222C125.555 130.096 124.715 129.735 123.877 129.401C123.039 129.067 122.229 128.695 121.418 128.332C119.799 127.621 118.162 126.932 116.463 126.619C115.633 126.433 114.773 126.433 113.943 126.619C113.545 126.729 113.171 126.911 112.839 127.156C112.509 127.413 112.225 127.724 111.999 128.075L111.658 127.878C111.886 127.465 112.182 127.093 112.534 126.778C112.904 126.472 113.328 126.237 113.783 126.084C114.69 125.826 115.644 125.772 116.574 125.926C118.401 126.205 120.1 126.863 121.763 127.525L124.228 128.545C125.04 128.864 125.874 129.188 126.651 129.271C127.439 129.343 128.229 129.15 128.894 128.722C129.567 128.277 130.113 127.666 130.479 126.949C130.67 126.588 130.821 126.208 130.93 125.815C131.024 125.409 131.094 124.998 131.14 124.585C131.21 123.74 131.177 122.89 131.042 122.053C130.76 120.37 130.101 118.745 129.362 117.149C128.623 115.554 127.774 113.991 127.119 112.283C126.812 111.414 126.64 110.503 126.609 109.582C126.579 108.651 126.791 107.727 127.224 106.901L127.585 107.078Z" fill="#3C1C16"/>
<path d="M127.869 60.5651C129.38 59.9106 130.943 59.3831 132.543 58.9882C134.134 58.5747 135.746 58.245 137.372 58.0003C139 57.7493 140.642 57.5952 142.288 57.5387C143.113 57.5178 143.939 57.5199 144.766 57.5617C145.594 57.6083 146.418 57.7137 147.231 57.8771L147.174 58.2634C146.366 58.2384 145.564 58.2112 144.757 58.2634C143.951 58.3157 143.145 58.3365 142.341 58.4138C140.731 58.5531 139.124 58.7445 137.522 58.9882C135.917 59.2221 134.324 59.5103 132.732 59.8236C131.936 59.9761 131.147 60.1536 130.357 60.3416C129.568 60.5296 128.788 60.7322 128.003 60.9431L127.869 60.5651Z" fill="#3C1C16"/>
<path d="M140.824 75.9956C141.491 75.6633 142.196 75.4149 142.924 75.2562C143.638 75.0912 144.356 74.9471 145.081 74.8531C146.529 74.6633 147.989 74.5711 149.45 74.5775C152.382 74.5853 155.3 74.9786 158.129 75.7471C160.951 76.5324 163.685 77.7688 166.03 79.5567C168.394 81.3297 170.25 83.6871 171.414 86.3947L171.059 86.5618C169.721 84.0629 167.821 81.9055 165.505 80.2584C164.357 79.4385 163.134 78.7281 161.852 78.1364C160.56 77.5585 159.226 77.0781 157.862 76.6995C155.116 75.9375 152.287 75.5083 149.438 75.4213C148.011 75.3651 146.583 75.4 145.161 75.5257C143.747 75.651 142.299 75.8327 141.011 76.3444L140.824 75.9956Z" fill="#3C1C16"/>
<path d="M294.506 110.497H277.639C274.868 110.497 272.622 112.731 272.622 115.487V130.594C272.622 133.349 274.868 135.583 277.639 135.583H294.506C297.277 135.583 299.523 133.349 299.523 130.594V115.487C299.523 112.731 297.277 110.497 294.506 110.497Z" fill="white" stroke="#1F3C88" stroke-width="3.75" stroke-miterlimit="10"/>
<path d="M286.074 140.542L281.183 135.585H290.964L286.074 140.542Z" fill="#1F3C88"/>
<path d="M285.643 130.149C285.514 130.149 285.386 130.121 285.268 130.067C285.151 130.013 285.047 129.934 284.963 129.835L280.072 124.117C279.919 123.937 279.844 123.705 279.863 123.47C279.882 123.235 279.994 123.017 280.174 122.865C280.355 122.712 280.589 122.637 280.825 122.656C281.061 122.675 281.28 122.787 281.433 122.966L285.488 127.707L291.8 116.391C291.857 116.289 291.933 116.199 292.025 116.127C292.117 116.054 292.222 116 292.334 115.968C292.447 115.936 292.565 115.926 292.682 115.939C292.798 115.952 292.911 115.988 293.013 116.044C293.116 116.101 293.206 116.177 293.279 116.268C293.352 116.359 293.407 116.464 293.439 116.576C293.471 116.688 293.481 116.806 293.468 116.922C293.455 117.037 293.419 117.15 293.362 117.252L286.433 129.691C286.362 129.817 286.263 129.923 286.142 130.002C286.021 130.081 285.883 130.13 285.74 130.145C285.708 130.148 285.675 130.15 285.643 130.149Z" fill="#F9CC2C"/>
<path d="M281.124 69.7194H289.994L282.909 24.1045H274.04L281.124 69.7194Z" fill="#8CBFBE"/>
<path d="M290.002 69.7194H298.874L291.789 24.1045H282.917L290.002 69.7194Z" fill="#6DD9D2"/>
<path d="M334.946 48.7645H302.208V69.7131H334.946V48.7645Z" fill="#8CBFBE"/>
<path d="M325.499 55.5712H311.655V59.2388H325.499V55.5712Z" fill="white"/>
<path d="M274.038 10.3177H258.634V69.7131H274.038V10.3177Z" fill="#6DD9D2"/>
<path d="M342.537 69.7131H250.339V76.3089H342.537V69.7131Z" fill="#45BFB7"/>
<path d="M87.6411 0H41.4687C37.8899 0 34.9888 2.88572 34.9888 6.44541V32.2667C34.9888 35.8264 37.8899 38.7121 41.4687 38.7121H87.6411C91.2199 38.7121 94.1211 35.8264 94.1211 32.2667V6.44541C94.1211 2.88572 91.2199 0 87.6411 0Z" fill="#45BFB7"/>
<path d="M65.3531 9.44719H64.4883V16.5463H65.3531V9.44719Z" fill="#E6E6E6"/>
<path d="M80.1158 8.22494L77.2888 13.8876L78.0631 14.2712L80.8901 8.60847L80.1158 8.22494Z" fill="#E6E6E6"/>
<path d="M67.9552 22.435L67.4063 23.1006L74.5768 28.9674L75.1257 28.3018L67.9552 22.435Z" fill="#E6E6E6"/>
<path d="M75.5148 28.8312C75.5527 28.7737 75.5744 28.7071 75.5775 28.6383C75.5806 28.5696 75.5651 28.5013 75.5325 28.4406L74.7593 28.8248C74.56 28.4278 74.9201 28.154 75.7752 27.4911C76.2751 27.1069 76.9791 26.5881 77.8648 25.9509C79.3741 24.867 80.9188 23.8007 80.9333 23.7895L81.4267 24.4972C79.1507 26.0726 75.8105 28.4582 75.5148 28.8312Z" fill="#E6E6E6"/>
<path d="M68.4648 19.5899L68.161 18.783L77.2941 15.3567L87.9044 14.8251L87.9494 15.6865L77.4725 16.2117L68.4648 19.5899Z" fill="#E6E6E6"/>
<path d="M60.6033 23.338L53.83 27.5751L54.2899 28.3046L61.0632 24.0674L60.6033 23.338Z" fill="#E6E6E6"/>
<path d="M56.8861 14.0963L56.2383 14.667L60.5085 19.4762L61.1562 18.9055L56.8861 14.0963Z" fill="#E6E6E6"/>
<path d="M45.2576 20.7123L44.8381 19.9582L53.0325 15.4352L44.1968 8.76515L44.7192 8.07829L54.6142 15.5472L45.2576 20.7123Z" fill="#E6E6E6"/>
<path d="M70.1639 20.6194C70.1644 19.6865 69.9352 18.7677 69.4965 17.9434C69.0578 17.1192 68.4229 16.4147 67.6474 15.8916C66.8719 15.3685 65.9794 15.0428 65.0482 14.9429C64.117 14.8431 63.1754 14.9722 62.3059 15.3189C61.4365 15.6657 60.6656 16.2195 60.0608 16.9318C59.4561 17.6442 59.0359 18.4934 58.837 19.405C58.6382 20.3167 58.6668 21.263 58.9204 22.161C59.1739 23.0591 59.6447 23.8816 60.2914 24.5564C61.1037 25.4191 61.552 26.5598 61.5435 27.7425V27.9378H67.2127V27.7937C67.2238 26.5941 67.7028 25.4458 68.5484 24.5916C69.5869 23.5284 70.1667 22.1028 70.1639 20.6194Z" fill="#FFD200"/>
<path d="M62.8971 27.9522C62.8508 27.9524 62.8059 27.9365 62.7702 27.9073C62.7344 27.878 62.7099 27.8374 62.701 27.7921L61.5035 20.573C61.4991 20.5472 61.5 20.5208 61.5058 20.4954C61.5117 20.47 61.5226 20.4459 61.5378 20.4247C61.5531 20.4034 61.5723 20.3853 61.5946 20.3715C61.6168 20.3577 61.6416 20.3483 61.6674 20.344C61.6933 20.3397 61.7197 20.3405 61.7453 20.3464C61.7708 20.3522 61.795 20.3631 61.8163 20.3782C61.8377 20.3934 61.8558 20.4126 61.8697 20.4348C61.8836 20.4569 61.893 20.4816 61.8973 20.5073L63.0948 27.7265C63.1032 27.778 63.0912 27.8308 63.0612 27.8735C63.0311 27.9163 62.9855 27.9457 62.934 27.9555L62.8971 27.9522Z" fill="#EBEBEB"/>
<path d="M65.893 27.9522H65.8592C65.8078 27.9425 65.7622 27.9131 65.7321 27.8703C65.7021 27.8276 65.69 27.7748 65.6985 27.7233L66.896 20.5041C66.9047 20.4521 66.9339 20.4057 66.977 20.375C67.0201 20.3444 67.0736 20.3321 67.1259 20.3408C67.1781 20.3495 67.2247 20.3785 67.2554 20.4215C67.2862 20.4644 67.2985 20.5177 67.2898 20.5698L66.0923 27.7889C66.0839 27.8353 66.0593 27.8771 66.0228 27.9071C65.9863 27.937 65.9403 27.953 65.893 27.9522Z" fill="#EBEBEB"/>
<path d="M67.679 27.0621H61.19V32.1647H67.679V27.0621Z" fill="#24285B"/>
<path d="M65.0236 22.0315C64.7712 22.0315 64.5269 21.881 64.2954 21.5816C64.2022 21.4599 64.1106 21.4039 64.0254 21.4103C63.8325 21.4279 63.6139 21.7385 63.5432 21.8906C63.5191 21.9376 63.4773 21.973 63.4269 21.9892C63.3766 22.0055 63.3219 22.0011 63.2747 21.9771C63.2276 21.9531 63.192 21.9114 63.1758 21.8613C63.1595 21.8112 63.1639 21.7566 63.1879 21.7097C63.2217 21.6441 63.5319 21.0597 63.9916 21.0181C64.1148 21.0115 64.2375 21.0377 64.3471 21.0939C64.4567 21.1502 64.5493 21.2345 64.6153 21.3383C64.7262 21.4808 64.8918 21.6489 65.0509 21.6313C65.2358 21.612 65.3981 21.3591 65.4399 21.2726C65.4637 21.2271 65.5043 21.1926 65.5532 21.1762C65.602 21.1599 65.6553 21.163 65.7019 21.185C65.7485 21.2069 65.7847 21.246 65.803 21.294C65.8213 21.342 65.8202 21.3951 65.7999 21.4423C65.7742 21.4968 65.5331 21.9803 65.0943 22.0267L65.0236 22.0315Z" fill="#EBEBEB"/>
<path opacity="0.21" d="M68.0732 18.1912C68.3787 17.4895 67.8954 16.6049 66.9937 16.2155C66.0921 15.8262 65.1136 16.0794 64.8081 16.7811C64.5027 17.4829 64.986 18.3674 65.8876 18.7568C66.7892 19.1462 67.7677 18.893 68.0732 18.1912Z" fill="#EBEBEB"/>
<path d="M62.2571 32.1646H66.6147C66.6147 32.426 66.5631 32.6847 66.4627 32.9262C66.3622 33.1677 66.2151 33.387 66.0296 33.5718C65.844 33.7566 65.6238 33.9032 65.3814 34.0032C65.139 34.1033 64.8791 34.1547 64.6168 34.1547H64.2551C63.7252 34.1547 63.217 33.9451 62.8423 33.5718C62.4676 33.1986 62.2571 32.6924 62.2571 32.1646Z" fill="#24285B"/>
<path d="M56.3855 10.973H51.2628C50.5793 10.973 50.0251 11.5249 50.0251 12.2058V17.3084C50.0251 17.9893 50.5793 18.5412 51.2628 18.5412H56.3855C57.0691 18.5412 57.6232 17.9893 57.6232 17.3084V12.2058C57.6232 11.5249 57.0691 10.973 56.3855 10.973Z" fill="#FFDE00"/>
<path d="M79.9448 12.3851H74.8221C74.1385 12.3851 73.5844 12.9371 73.5844 13.6179V18.7205C73.5844 19.4014 74.1385 19.9534 74.8221 19.9534H79.9448C80.6284 19.9534 81.1825 19.4014 81.1825 18.7205V13.6179C81.1825 12.9371 80.6284 12.3851 79.9448 12.3851Z" fill="#FFDE00"/>
<path opacity="0.09" d="M79.9448 12.3851H74.8221C74.1385 12.3851 73.5844 12.9371 73.5844 13.6179V18.7205C73.5844 19.4014 74.1385 19.9534 74.8221 19.9534H79.9448C80.6284 19.9534 81.1825 19.4014 81.1825 18.7205V13.6179C81.1825 12.9371 80.6284 12.3851 79.9448 12.3851Z" fill="black"/>
<path d="M55.3245 23.7046H50.2018C49.5182 23.7046 48.9641 24.2566 48.9641 24.9374V30.04C48.9641 30.7209 49.5182 31.2728 50.2018 31.2728H55.3245C56.0081 31.2728 56.5622 30.7209 56.5622 30.04V24.9374C56.5622 24.2566 56.0081 23.7046 55.3245 23.7046Z" fill="#FFDE00"/>
<path opacity="0.6" d="M55.3245 23.7046H50.2018C49.5182 23.7046 48.9641 24.2566 48.9641 24.9374V30.04C48.9641 30.7209 49.5182 31.2728 50.2018 31.2728H55.3245C56.0081 31.2728 56.5622 30.7209 56.5622 30.04V24.9374C56.5622 24.2566 56.0081 23.7046 55.3245 23.7046Z" fill="#EBEBEB"/>
<path d="M77.0274 25.8533H73.2645C72.7629 25.8533 72.3563 26.2583 72.3563 26.7579V30.5059C72.3563 31.0055 72.7629 31.4105 73.2645 31.4105H77.0274C77.5289 31.4105 77.9355 31.0055 77.9355 30.5059V26.7579C77.9355 26.2583 77.5289 25.8533 77.0274 25.8533Z" fill="#FFDE00"/>
<path d="M67.4297 4.71604H62.4131C61.7446 4.71604 61.2027 5.25581 61.2027 5.92164V10.9185C61.2027 11.5844 61.7446 12.1241 62.4131 12.1241H67.4297C68.0981 12.1241 68.64 11.5844 68.64 10.9185V5.92164C68.64 5.25581 68.0981 4.71604 67.4297 4.71604Z" fill="#FFDE00"/>
<path opacity="0.46" d="M67.4297 4.71604H62.4131C61.7446 4.71604 61.2027 5.25581 61.2027 5.92164V10.9185C61.2027 11.5844 61.7446 12.1241 62.4131 12.1241H67.4297C68.0981 12.1241 68.64 11.5844 68.64 10.9185V5.92164C68.64 5.25581 68.0981 4.71604 67.4297 4.71604Z" fill="#EBEBEB"/>
<path d="M45.9632 5.91203H42.824C42.4059 5.91203 42.067 6.24965 42.067 6.66613V9.793C42.067 10.2095 42.4059 10.5471 42.824 10.5471H45.9632C46.3814 10.5471 46.7203 10.2095 46.7203 9.793V6.66613C46.7203 6.24965 46.3814 5.91203 45.9632 5.91203Z" fill="#FFDE00"/>
<path opacity="0.46" d="M45.9632 5.91203H42.824C42.4059 5.91203 42.067 6.24965 42.067 6.66613V9.793C42.067 10.2095 42.4059 10.5471 42.824 10.5471H45.9632C46.3814 10.5471 46.7203 10.2095 46.7203 9.793V6.66613C46.7203 6.24965 46.3814 5.91203 45.9632 5.91203Z" fill="#EBEBEB"/>
<path d="M46.1047 18.7718H43.9894C43.7071 18.7718 43.4782 18.9997 43.4782 19.2809V21.3879C43.4782 21.6691 43.7071 21.897 43.9894 21.897H46.1047C46.387 21.897 46.6158 21.6691 46.6158 21.3879V19.2809C46.6158 18.9997 46.387 18.7718 46.1047 18.7718Z" fill="#FFDE00"/>
<path opacity="0.09" d="M46.1047 18.7718H43.9894C43.7071 18.7718 43.4782 18.9997 43.4782 19.2809V21.3879C43.4782 21.6691 43.7071 21.897 43.9894 21.897H46.1047C46.387 21.897 46.6158 21.6691 46.6158 21.3879V19.2809C46.6158 18.9997 46.387 18.7718 46.1047 18.7718Z" fill="black"/>
<path d="M81.8929 22.142H79.7776C79.4953 22.142 79.2665 22.3699 79.2665 22.6511V24.7581C79.2665 25.0393 79.4953 25.2673 79.7776 25.2673H81.8929C82.1752 25.2673 82.4041 25.0393 82.4041 24.7581V22.6511C82.4041 22.3699 82.1752 22.142 81.8929 22.142Z" fill="#FFDE00"/>
<path opacity="0.6" d="M81.8929 22.142H79.7776C79.4953 22.142 79.2665 22.3699 79.2665 22.6511V24.7581C79.2665 25.0393 79.4953 25.2673 79.7776 25.2673H81.8929C82.1752 25.2673 82.4041 25.0393 82.4041 24.7581V22.6511C82.4041 22.3699 82.1752 22.142 81.8929 22.142Z" fill="#EBEBEB"/>
<path d="M81.025 6.85828H78.9097C78.6274 6.85828 78.3986 7.08623 78.3986 7.36741V9.47441C78.3986 9.7556 78.6274 9.98355 78.9097 9.98355H81.025C81.3073 9.98355 81.5362 9.7556 81.5362 9.47441V7.36741C81.5362 7.08623 81.3073 6.85828 81.025 6.85828Z" fill="#FFDE00"/>
<path opacity="0.6" d="M81.025 6.85828H78.9097C78.6274 6.85828 78.3986 7.08623 78.3986 7.36741V9.47441C78.3986 9.7556 78.6274 9.98355 78.9097 9.98355H81.025C81.3073 9.98355 81.5362 9.7556 81.5362 9.47441V7.36741C81.5362 7.08623 81.3073 6.85828 81.025 6.85828Z" fill="#EBEBEB"/>
<path d="M89.4895 12.2458H85.8777C85.3957 12.2458 85.0049 12.6351 85.0049 13.1152V16.7128C85.0049 17.193 85.3957 17.5822 85.8777 17.5822H89.4895C89.9715 17.5822 90.3623 17.193 90.3623 16.7128V13.1152C90.3623 12.6351 89.9715 12.2458 89.4895 12.2458Z" fill="#FFDE00"/>
<path d="M58.2403 4.80891H54.6141V8.42091H58.2403V4.80891Z" fill="#E6E6E6"/>
<path d="M75.1259 7.55313H72.4271V9.54966H75.1259V7.55313Z" fill="#E6E6E6"/>
<path d="M49.935 77.8837L41.54 71.3548H58.33L49.935 77.8837Z" fill="#FBC343"/>
<path d="M60.5936 32.6489H14.4212C10.8425 32.6489 7.94128 35.5346 7.94128 39.0943V64.9156C7.94128 68.4753 10.8425 71.361 14.4212 71.361H60.5936C64.1724 71.361 67.0736 68.4753 67.0736 64.9156V39.0943C67.0736 35.5346 64.1724 32.6489 60.5936 32.6489Z" fill="#F9CC2C"/>
<g opacity="0.8">
<path opacity="0.8" d="M26.1738 54.7379H20.4498V61.7744H26.1738V54.7379Z" fill="white"/>
<path opacity="0.8" d="M35.3645 46.9036H29.6404V61.7765H35.3645V46.9036Z" fill="white"/>
<path opacity="0.8" d="M44.9649 50.2808H39.2408V61.7765H44.9649V50.2808Z" fill="white"/>
<path opacity="0.8" d="M54.5651 42.2314H48.8411V61.7765H54.5651V42.2314Z" fill="white"/>
</g>
</g>
<defs>
<filter id="filter0_d" x="-28" y="0" width="421" height="280" filterUnits="userSpaceOnUse" color-interpolation-filters="sRGB">
<feFlood flood-opacity="0" result="BackgroundImageFix"/>
<feColorMatrix in="SourceAlpha" type="matrix" values="0 0 0 0 0 0 0 0 0 0 0 0 0 0 0 0 0 0 127 0" result="hardAlpha"/>
<feOffset dy="4"/>
<feGaussianBlur stdDeviation="2"/>
<feComposite in2="hardAlpha" operator="out"/>
<feColorMatrix type="matrix" values="0 0 0 0 0 0 0 0 0 0 0 0 0 0 0 0 0 0 0.25 0"/>
<feBlend mode="normal" in2="BackgroundImageFix" result="effect1_dropShadow"/>
<feBlend mode="normal" in="SourceGraphic" in2="effect1_dropShadow" result="shape"/>
</filter>
</defs>
</svg>
